<svg width="24" height="24" viewBox="0 0 24 24" fill="none" xmlns="http://www.w3.org/2000/svg">
<path d="M20.8295 10.1C21.0194 10.1 21.2015 10.1751 21.3357 10.3087C21.47 10.4424 21.5455 10.6235 21.5455 10.8125V19.8375C21.5455 20.2784 21.3693 20.7012 21.0561 21.0129C20.7428 21.3247 20.318 21.5 19.875 21.5H4.125C3.68197 21.5 3.25721 21.3247 2.94394 21.0129C2.63067 20.7012 2.45455 20.2784 2.45455 19.8375V10.8125C2.45455 10.6235 2.53003 10.4424 2.66428 10.3087C2.79854 10.1751 2.98058 10.1 3.17045 10.1C3.36033 10.1 3.54237 10.1751 3.67662 10.3087C3.81088 10.4424 3.88636 10.6235 3.88636 10.8125V19.8375C3.88636 19.9686 3.99327 20.075 4.125 20.075H19.875C19.9383 20.075 19.999 20.05 20.0437 20.0054C20.0885 19.9609 20.1136 19.9005 20.1136 19.8375V10.8125C20.1136 10.6235 20.1891 10.4424 20.3234 10.3087C20.4576 10.1751 20.6397 10.1 20.8295 10.1Z" fill="#1F2328"/>
<path d="M14.1477 11.525C14.3376 11.525 14.5196 11.6001 14.6539 11.7337C14.7882 11.8674 14.8636 12.0485 14.8636 12.2375C14.8636 12.4265 14.7882 12.6076 14.6539 12.7413C14.5196 12.8749 14.3376 12.95 14.1477 12.95H9.85227C9.6624 12.95 9.48036 12.8749 9.3461 12.7413C9.21184 12.6076 9.13636 12.4265 9.13636 12.2375C9.13636 12.0485 9.21184 11.8674 9.3461 11.7337C9.48036 11.6001 9.6624 11.525 9.85227 11.525H14.1477Z" fill="#1F2328"/>
<path fill-rule="evenodd" clip-rule="evenodd" d="M20.8295 2.5C21.7516 2.5 22.5 3.2448 22.5 4.1625V7.4875C22.5 7.92842 22.3239 8.35116 22.0106 8.66294C21.6973 8.97472 21.2726 9.15 20.8295 9.15H3.17045C2.72742 9.15 2.30266 8.97472 1.98939 8.66294C1.67612 8.35116 1.5 7.92842 1.5 7.4875V4.1625C1.5 3.2448 2.24836 2.5 3.17045 2.5H20.8295ZM3.17045 3.925C3.10716 3.925 3.04648 3.95004 3.00173 3.99458C2.95698 4.03912 2.93182 4.09951 2.93182 4.1625V7.4875C2.93182 7.6186 3.03873 7.725 3.17045 7.725H20.8295C20.8928 7.725 20.9535 7.69996 20.9983 7.65542C21.043 7.61088 21.0682 7.55049 21.0682 7.4875V4.1625C21.0682 4.09951 21.043 4.03912 20.9983 3.99458C20.9535 3.95004 20.8928 3.925 20.8295 3.925H3.17045Z" fill="#1F2328"/>
</svg>
