<svg width="28" height="28" viewBox="0 0 28 28" fill="none" xmlns="http://www.w3.org/2000/svg">
<path d="M10.1733 21.9098C10.0095 21.7457 9.91743 21.5233 9.91743 21.2915C9.91743 21.0596 10.0095 20.8372 10.1733 20.6731L16.8467 13.9998L10.1733 7.32646C10.0189 7.16049 9.93473 6.94109 9.93865 6.71439C9.94257 6.48769 10.0342 6.27133 10.1943 6.11079C10.3549 5.95068 10.5712 5.85903 10.7979 5.85511C11.0246 5.8512 11.244 5.93532 11.41 6.08979L18.7017 13.3815C18.8655 13.5455 18.9576 13.7679 18.9576 13.9998C18.9576 14.2317 18.8655 14.4541 18.7017 14.6181L11.41 21.9098C11.2459 22.0737 11.0235 22.1657 10.7917 22.1657C10.5598 22.1657 10.3374 22.0737 10.1733 21.9098Z" fill="#FCFCFF"/>
</svg>
