<svg width="24" height="24" viewBox="0 0 24 24" fill="none" xmlns="http://www.w3.org/2000/svg">
<path d="M15.28 5.22007C15.4204 5.3607 15.4993 5.55132 15.4993 5.75007C15.4993 5.94882 15.4204 6.13945 15.28 6.28007L9.56 12.0001L15.28 17.7201C15.3787 17.8117 15.4509 17.9283 15.4889 18.0576C15.5269 18.1868 15.5294 18.324 15.496 18.4545C15.4626 18.585 15.3947 18.7041 15.2993 18.7992C15.2039 18.8944 15.0846 18.962 14.954 18.9951C14.8236 19.0285 14.6866 19.0262 14.5575 18.9883C14.4283 18.9505 14.3117 18.8786 14.22 18.7801L7.97 12.5301C7.82955 12.3894 7.75066 12.1988 7.75066 12.0001C7.75066 11.8013 7.82955 11.6107 7.97 11.4701L14.22 5.22007C14.3606 5.07962 14.5512 5.00073 14.75 5.00073C14.9487 5.00073 15.1394 5.07962 15.28 5.22007Z" fill="#1F2328"/>
</svg>
