<svg width="24" height="24" viewBox="0 0 24 24" fill="none" xmlns="http://www.w3.org/2000/svg">
<path d="M18.78 15.78C18.7104 15.8497 18.6278 15.9049 18.5369 15.9426C18.4459 15.9803 18.3484 15.9998 18.25 15.9998C18.1515 15.9998 18.0541 15.9803 17.9631 15.9426C17.8722 15.9049 17.7896 15.8497 17.72 15.78L12 10.061L6.28 15.78C6.2104 15.8496 6.12777 15.9048 6.03683 15.9425C5.94589 15.9801 5.84843 15.9995 5.75 15.9995C5.65157 15.9995 5.5541 15.9801 5.46316 15.9425C5.37223 15.9048 5.2896 15.8496 5.22 15.78C5.1504 15.7104 5.09519 15.6278 5.05752 15.5368C5.01985 15.4459 5.00047 15.3484 5.00047 15.25C5.00047 15.1516 5.01985 15.0541 5.05752 14.9632C5.09519 14.8722 5.1504 14.7896 5.22 14.72L11.47 8.47C11.5396 8.40033 11.6222 8.34507 11.7131 8.30736C11.8041 8.26965 11.9015 8.25024 12 8.25024C12.0984 8.25024 12.1959 8.26965 12.2869 8.30736C12.3778 8.34507 12.4604 8.40033 12.53 8.47L18.78 14.72C18.8497 14.7896 18.9049 14.8722 18.9426 14.9631C18.9803 15.0541 18.9998 15.1515 18.9998 15.25C18.9998 15.3484 18.9803 15.4459 18.9426 15.5369C18.9049 15.6278 18.8497 15.7104 18.78 15.78Z" fill="#1F2328"/>
</svg>
