<svg width="24" height="24" viewBox="0 0 24 24" fill="none" xmlns="http://www.w3.org/2000/svg">
<path d="M5.22 8.22C5.15034 8.28956 5.09507 8.37218 5.05736 8.46312C5.01966 8.55406 5.00025 8.65155 5.00025 8.75C5.00025 8.84845 5.01966 8.94593 5.05736 9.03687C5.09507 9.12782 5.15034 9.21043 5.22 9.28L11.47 15.53C11.5396 15.5997 11.6222 15.6549 11.7131 15.6926C11.8041 15.7303 11.9016 15.7498 12 15.7498C12.0985 15.7498 12.1959 15.7303 12.2869 15.6926C12.3778 15.6549 12.4604 15.5997 12.53 15.53L18.78 9.28C18.8496 9.2104 18.9048 9.12777 18.9425 9.03683C18.9801 8.94589 18.9995 8.84843 18.9995 8.75C18.9995 8.65157 18.9801 8.5541 18.9425 8.46316C18.9048 8.37223 18.8496 8.2896 18.78 8.22C18.7104 8.1504 18.6278 8.09519 18.5368 8.05752C18.4459 8.01985 18.3484 8.00046 18.25 8.00046C18.1516 8.00046 18.0541 8.01985 17.9632 8.05752C17.8722 8.09519 17.7896 8.1504 17.72 8.22L12 13.939L6.28 8.22C6.21044 8.15033 6.12782 8.09507 6.03688 8.05736C5.94593 8.01965 5.84845 8.00024 5.75 8.00024C5.65155 8.00024 5.55407 8.01965 5.46312 8.05736C5.37218 8.09507 5.28957 8.15033 5.22 8.22Z" fill="#1F2328"/>
</svg>
