<svg width="24" height="24" viewBox="0 0 24 24" fill="none" xmlns="http://www.w3.org/2000/svg">
<path d="M8.72 18.7801C8.57955 18.6394 8.50066 18.4488 8.50066 18.2501C8.50066 18.0513 8.57955 17.8607 8.72 17.7201L14.44 12.0001L8.72 6.28007C8.58759 6.13781 8.51548 5.94975 8.51884 5.75544C8.5222 5.56112 8.60075 5.37567 8.738 5.23807C8.8756 5.10082 9.06105 5.02227 9.25537 5.01891C9.44968 5.01555 9.63773 5.08766 9.78 5.22007L16.03 11.4701C16.1704 11.6107 16.2493 11.8013 16.2493 12.0001C16.2493 12.1988 16.1704 12.3894 16.03 12.5301L9.78 18.7801C9.63937 18.9205 9.44875 18.9994 9.25 18.9994C9.05125 18.9994 8.86062 18.9205 8.72 18.7801Z" fill="#1F2328"/>
</svg>
