<svg width="24" height="24" viewBox="0 0 24 24" fill="none" xmlns="http://www.w3.org/2000/svg">
<path d="M18.1897 17.3077C18.1897 17.4913 18.1145 17.6674 17.9808 17.7972C17.8471 17.9271 17.6657 18 17.4765 18C17.2874 18 17.106 17.9271 16.9722 17.7972C16.8385 17.6674 16.7633 17.4913 16.7633 17.3077V8.36259L14.6524 10.4119C14.5871 10.4799 14.5083 10.5345 14.4209 10.5723C14.3334 10.6102 14.2389 10.6305 14.1432 10.6322C14.0474 10.6338 13.9523 10.6167 13.8635 10.5819C13.7747 10.5471 13.694 10.4952 13.6263 10.4295C13.5586 10.3638 13.5052 10.2854 13.4693 10.1992C13.4335 10.113 13.4159 10.0207 13.4176 9.92772C13.4192 9.83476 13.4402 9.74308 13.4792 9.65816C13.5182 9.57323 13.5744 9.4968 13.6444 9.43341L16.9725 6.20248C17.1063 6.07282 17.2875 6 17.4765 6C17.6655 6 17.8468 6.07282 17.9805 6.20248L21.3086 9.43341C21.4346 9.56466 21.5031 9.73825 21.4999 9.91761C21.4966 10.097 21.4218 10.2681 21.2911 10.395C21.1605 10.5218 20.9842 10.5945 20.7994 10.5976C20.6147 10.6008 20.4358 10.5342 20.3007 10.4119L18.1897 8.36259V17.3077ZM3.21317 17.5384C3.02402 17.5384 2.84263 17.4655 2.70888 17.3357C2.57514 17.2058 2.5 17.0297 2.5 16.8461C2.5 16.6625 2.57514 16.4864 2.70888 16.3565C2.84263 16.2267 3.02402 16.1538 3.21317 16.1538H12.2466C12.4358 16.1538 12.6172 16.2267 12.7509 16.3565C12.8846 16.4864 12.9598 16.6625 12.9598 16.8461C12.9598 17.0297 12.8846 17.2058 12.7509 17.3357C12.6172 17.4655 12.4358 17.5384 12.2466 17.5384H3.21317ZM3.21317 12.9228C3.02402 12.9228 2.84263 12.8499 2.70888 12.72C2.57514 12.5902 2.5 12.4141 2.5 12.2305C2.5 12.0469 2.57514 11.8708 2.70888 11.7409C2.84263 11.6111 3.02402 11.5381 3.21317 11.5381H8.44306C8.6322 11.5381 8.8136 11.6111 8.94734 11.7409C9.08109 11.8708 9.15623 12.0469 9.15623 12.2305C9.15623 12.4141 9.08109 12.5902 8.94734 12.72C8.8136 12.8499 8.6322 12.9228 8.44306 12.9228H3.21317ZM3.21317 8.3072C3.02402 8.3072 2.84263 8.23426 2.70888 8.10442C2.57514 7.97458 2.5 7.79848 2.5 7.61486C2.5 7.43124 2.57514 7.25514 2.70888 7.1253C2.84263 6.99546 3.02402 6.92251 3.21317 6.92251H6.54128C6.73042 6.92251 6.91182 6.99546 7.04557 7.1253C7.17931 7.25514 7.25445 7.43124 7.25445 7.61486C7.25445 7.79848 7.17931 7.97458 7.04557 8.10442C6.91182 8.23426 6.73042 8.3072 6.54128 8.3072H3.21317Z" fill="#1F2328"/>
</svg>
