<svg width="24" height="24" viewBox="0 0 24 24" fill="none" xmlns="http://www.w3.org/2000/svg">
<path fill-rule="evenodd" clip-rule="evenodd" d="M19.8375 2.5C20.7552 2.5 21.5 3.2448 21.5 4.1625V19.8375C21.5 20.2784 21.3247 20.7012 21.0129 21.0129C20.7012 21.3247 20.2784 21.5 19.8375 21.5H4.1625C3.72158 21.5 3.29884 21.3247 2.98706 21.0129C2.67528 20.7012 2.5 20.2784 2.5 19.8375V4.1625C2.5 3.2448 3.2448 2.5 4.1625 2.5H19.8375ZM4.1625 3.925C4.09951 3.925 4.03912 3.95004 3.99458 3.99458C3.95004 4.03912 3.925 4.09951 3.925 4.1625V19.8375C3.925 19.9686 4.0314 20.075 4.1625 20.075H19.8375C19.9005 20.075 19.9609 20.05 20.0054 20.0054C20.05 19.9609 20.075 19.9005 20.075 19.8375V4.1625C20.075 4.09951 20.05 4.03912 20.0054 3.99458C19.9609 3.95004 19.9005 3.925 19.8375 3.925H4.1625Z" fill="#BEC5CB"/>
</svg>
