<svg width="24" height="24" viewBox="0 0 24 24" fill="none" xmlns="http://www.w3.org/2000/svg">
<path d="M20.7867 6.20247C20.9233 6.33227 21 6.50823 21 6.69169C21 6.87515 20.9233 7.05111 20.7867 7.18092L9.60563 17.7962C9.53715 17.8617 9.45553 17.9135 9.36559 17.9485C9.27565 17.9835 9.17922 18.001 9.08203 18C8.98483 17.9989 8.88884 17.9794 8.79975 17.9425C8.71065 17.9056 8.63027 17.8521 8.56336 17.7851L3.21587 12.4775C3.14668 12.4124 3.09193 12.3348 3.05486 12.2492C3.01779 12.1637 2.99914 12.072 3.00003 11.9795C3.00092 11.887 3.02132 11.7956 3.06002 11.7107C3.09873 11.6259 3.15495 11.5492 3.22538 11.4853C3.29581 11.4214 3.37901 11.3715 3.47008 11.3387C3.56114 11.3058 3.65822 11.2906 3.75557 11.2939C3.85293 11.2973 3.9486 11.3191 4.03692 11.3582C4.12524 11.3972 4.20443 11.4526 4.26981 11.5212L9.10199 16.3165L19.7561 6.20247C19.8929 6.07282 20.0782 6 20.2714 6C20.4647 6 20.65 6.07282 20.7867 6.20247Z" fill="#1F2328"/>
</svg>
