<svg width="24" height="24" viewBox="0 0 24 24" fill="none" xmlns="http://www.w3.org/2000/svg">
<path d="M16.5069 8.21763C16.6915 8.22089 16.8681 8.29586 16.9986 8.42637C17.1292 8.55692 17.2041 8.73349 17.2074 8.91807C17.2106 9.10254 17.142 9.28127 17.0163 9.41627L10.8413 15.5913C10.7077 15.7247 10.5263 15.7991 10.3375 15.7991C10.1487 15.7991 9.96733 15.7247 9.83374 15.5913L6.98374 12.7413C6.85797 12.6063 6.78944 12.4275 6.79262 12.2431C6.79588 12.0585 6.87082 11.8819 7.00136 11.7514C7.1319 11.6209 7.3085 11.5459 7.49306 11.5426C7.6775 11.5395 7.85629 11.608 7.99126 11.7337L10.3375 14.0809L16.0087 8.40875C16.1437 8.28299 16.3225 8.21447 16.5069 8.21763Z" fill="#0EC8B0"/>
<path fill-rule="evenodd" clip-rule="evenodd" d="M19.8375 2.5C20.7552 2.5 21.5 3.2448 21.5 4.1625V19.8375C21.5 20.2784 21.3247 20.7012 21.0129 21.0129C20.7012 21.3247 20.2784 21.5 19.8375 21.5H4.1625C3.72158 21.5 3.29884 21.3247 2.98706 21.0129C2.67528 20.7012 2.5 20.2784 2.5 19.8375V4.1625C2.5 3.2448 3.2448 2.5 4.1625 2.5H19.8375ZM4.1625 3.925C4.09951 3.925 4.03912 3.95004 3.99458 3.99458C3.95004 4.03912 3.925 4.09951 3.925 4.1625V19.8375C3.925 19.9686 4.0314 20.075 4.1625 20.075H19.8375C19.9005 20.075 19.9609 20.05 20.0054 20.0054C20.05 19.9609 20.075 19.9005 20.075 19.8375V4.1625C20.075 4.09951 20.05 4.03912 20.0054 3.99458C19.9609 3.95004 19.9005 3.925 19.8375 3.925H4.1625Z" fill="#0EC8B0"/>
</svg>
