<svg width="24" height="24" viewBox="0 0 24 24" fill="none" xmlns="http://www.w3.org/2000/svg">
<path d="M5.71934 18.7801C5.57889 18.6394 5.5 18.4488 5.5 18.2501C5.5 18.0513 5.57889 17.8607 5.71934 17.7201L11.4393 12.0001L5.71934 6.28007C5.58693 6.13781 5.51483 5.94975 5.51818 5.75544C5.52154 5.56112 5.6001 5.37567 5.73734 5.23807C5.87494 5.10082 6.06039 5.02227 6.25471 5.01891C6.44903 5.01555 6.63708 5.08766 6.77934 5.22007L13.0293 11.4701C13.1698 11.6107 13.2487 11.8013 13.2487 12.0001C13.2487 12.1988 13.1698 12.3894 13.0293 12.5301L6.77934 18.7801C6.63871 18.9205 6.44809 18.9994 6.24934 18.9994C6.05059 18.9994 5.85997 18.9205 5.71934 18.7801Z" fill="#1F2328"/>
<path d="M11.2187 18.7613C11.0782 18.6206 10.9993 18.43 10.9993 18.2313C10.9993 18.0325 11.0782 17.8419 11.2187 17.7013L16.9387 11.9813L11.2187 6.26127C11.0863 6.11901 11.0142 5.93095 11.0175 5.73664C11.0209 5.54232 11.0994 5.35687 11.2367 5.21927C11.3743 5.08202 11.5597 5.00347 11.7541 5.00011C11.9484 4.99676 12.1364 5.06886 12.2787 5.20127L18.5287 11.4513C18.6691 11.5919 18.748 11.7825 18.748 11.9813C18.748 12.18 18.6691 12.3706 18.5287 12.5113L12.2787 18.7613C12.1381 18.9017 11.9474 18.9806 11.7487 18.9806C11.5499 18.9806 11.3593 18.9017 11.2187 18.7613Z" fill="#1F2328"/>
</svg>
