<svg width="24" height="24" viewBox="0 0 24 24" fill="none" xmlns="http://www.w3.org/2000/svg">
<path d="M3 4.57515C3 3.70567 3.672 3 4.5 3H19.5C20.328 3 21 3.70567 21 4.57515V15.8262C21 16.244 20.842 16.6446 20.5607 16.94C20.2794 17.2354 19.8978 17.4014 19.5 17.4014H11.1943L8.13171 20.6174C7.9569 20.8003 7.73445 20.9247 7.49239 20.975C7.25033 21.0253 6.9995 20.9993 6.77153 20.9001C6.54355 20.801 6.34863 20.6332 6.21132 20.4179C6.07402 20.2026 6.00049 19.9494 6 19.6903V17.4014H4.5C4.10218 17.4014 3.72064 17.2354 3.43934 16.94C3.15804 16.6446 3 16.244 3 15.8262V4.57515ZM4.5 4.35013C4.44317 4.35013 4.38866 4.37384 4.34848 4.41604C4.30829 4.45824 4.28571 4.51547 4.28571 4.57515V15.8262C4.28571 15.9504 4.38171 16.0512 4.5 16.0512H6.64286C6.81335 16.0512 6.97687 16.1224 7.09743 16.249C7.21799 16.3756 7.28571 16.5473 7.28571 16.7263V19.5976L10.4743 16.2493C10.5339 16.1865 10.6047 16.1367 10.6827 16.1028C10.7606 16.0688 10.8442 16.0513 10.9286 16.0512H19.5C19.5568 16.0512 19.6113 16.0275 19.6515 15.9853C19.6917 15.9431 19.7143 15.8859 19.7143 15.8262V4.57515C19.7143 4.51547 19.6917 4.45824 19.6515 4.41604C19.6113 4.37384 19.5568 4.35013 19.5 4.35013H4.5Z" fill="#1F2328"/>
</svg>
