<svg width="24" height="24" viewBox="0 0 24 24" fill="none" xmlns="http://www.w3.org/2000/svg">
<path d="M15.6 3.55556V4.66667H20.325C20.504 4.66667 20.6757 4.7369 20.8023 4.86193C20.9289 4.98695 21 5.15652 21 5.33333C21 5.51014 20.9289 5.67971 20.8023 5.80474C20.6757 5.92976 20.504 6 20.325 6H3.675C3.49598 6 3.32429 5.92976 3.1977 5.80474C3.07112 5.67971 3 5.51014 3 5.33333C3 5.15652 3.07112 4.98695 3.1977 4.86193C3.32429 4.7369 3.49598 4.66667 3.675 4.66667H8.4V3.55556C8.4 2.69689 9.1056 2 9.975 2H14.025C14.8944 2 15.6 2.69689 15.6 3.55556ZM9.75 3.55556V4.66667H14.25V3.55556C14.25 3.49662 14.2263 3.4401 14.1841 3.39842C14.1419 3.35675 14.0847 3.33333 14.025 3.33333H9.975C9.91533 3.33333 9.8581 3.35675 9.8159 3.39842C9.77371 3.4401 9.75 3.49662 9.75 3.55556ZM5.6973 7.49156C5.6896 7.40379 5.66437 7.3184 5.62306 7.24032C5.58175 7.16224 5.52518 7.09302 5.45663 7.03666C5.38807 6.98031 5.30888 6.93793 5.22364 6.91198C5.1384 6.88603 5.0488 6.87702 4.96001 6.88548C4.87123 6.89394 4.78502 6.91969 4.70637 6.96125C4.62773 7.00282 4.5582 7.05936 4.50181 7.12762C4.44542 7.19588 4.40329 7.2745 4.37785 7.35894C4.35241 7.44337 4.34417 7.53195 4.3536 7.61956L5.6244 20.5956C5.66241 20.9802 5.84401 21.337 6.13383 21.5967C6.42364 21.8563 6.80093 22.0001 7.1922 22H16.8078C17.1992 22 17.5766 21.8561 17.8665 21.5963C18.1563 21.3365 18.3378 20.9794 18.3756 20.5947L19.6473 7.61956C19.6645 7.44345 19.6101 7.26782 19.4962 7.13129C19.3823 6.99477 19.2181 6.90853 19.0398 6.89156C18.8615 6.87458 18.6837 6.92826 18.5454 7.04078C18.4072 7.1533 18.3199 7.31545 18.3027 7.49156L17.0319 20.4658C17.0265 20.5208 17.0006 20.5719 16.9592 20.609C16.9177 20.6461 16.8638 20.6667 16.8078 20.6667H7.1922C7.13624 20.6667 7.08228 20.6461 7.04084 20.609C6.99941 20.5719 6.97347 20.5208 6.9681 20.4658L5.6973 7.49156Z" fill="#1F2328"/>
<path d="M9.4854 8.66756C9.57393 8.66238 9.66263 8.6745 9.74642 8.7032C9.83021 8.7319 9.90745 8.77662 9.97373 8.83482C10.04 8.89302 10.094 8.96355 10.1327 9.04237C10.1714 9.1212 10.1939 9.20678 10.1991 9.29422L10.6491 16.8498C10.6596 17.0265 10.5986 17.2 10.4795 17.3323C10.3605 17.4646 10.1931 17.5447 10.0141 17.5551C9.83525 17.5655 9.6595 17.5052 9.52557 17.3876C9.39164 17.27 9.3105 17.1047 9.3 16.928L8.85 9.37244C8.84476 9.28501 8.85703 9.19741 8.88609 9.11465C8.91514 9.03189 8.96043 8.9556 9.01936 8.89014C9.07828 8.82468 9.14969 8.77133 9.2295 8.73314C9.30931 8.69494 9.39596 8.67266 9.4845 8.66756H9.4854ZM15.1491 9.37244C15.1596 9.19575 15.0986 9.02217 14.9795 8.8899C14.8605 8.75762 14.6931 8.67748 14.5141 8.66711C14.3352 8.65674 14.1595 8.71698 14.0256 8.83459C13.8916 8.95219 13.8105 9.11753 13.8 9.29422L13.35 16.8498C13.3395 17.0264 13.4004 17.1998 13.5194 17.332C13.6384 17.4642 13.8057 17.5443 13.9845 17.5547C14.1633 17.565 14.3389 17.5048 14.4728 17.3873C14.6066 17.2698 14.6877 17.1046 14.6982 16.928L15.1491 9.37244Z" fill="#1F2328"/>
</svg>
