<svg width="24" height="24" viewBox="0 0 24 24" fill="none" xmlns="http://www.w3.org/2000/svg">
<path d="M18.1604 15.6374V6.69234C18.1604 6.50872 18.0854 6.33262 17.9519 6.20278C17.8184 6.07294 17.6373 6 17.4485 6C17.2597 6 17.0787 6.07294 16.9452 6.20278C16.8117 6.33262 16.7367 6.50872 16.7367 6.69234V15.6374L14.6297 13.5881C14.5645 13.5201 14.4859 13.4655 14.3986 13.4277C14.3113 13.3898 14.217 13.3695 14.1214 13.3678C14.0258 13.3662 13.9309 13.3833 13.8423 13.4181C13.7536 13.4529 13.6731 13.5048 13.6055 13.5705C13.5379 13.6362 13.4846 13.7146 13.4488 13.8008C13.413 13.887 13.3955 13.9793 13.3971 14.0723C13.3988 14.1652 13.4198 14.2569 13.4587 14.3418C13.4976 14.4268 13.5537 14.5032 13.6236 14.5666L16.9455 17.7975C17.079 17.9272 17.2599 18 17.4485 18C17.6372 18 17.8181 17.9272 17.9515 17.7975L21.2734 14.5666C21.3434 14.5032 21.3995 14.4268 21.4384 14.3418C21.4773 14.2569 21.4982 14.1652 21.4999 14.0723C21.5016 13.9793 21.484 13.887 21.4482 13.8008C21.4124 13.7146 21.3591 13.6362 21.2915 13.5705C21.2239 13.5048 21.1434 13.4529 21.0548 13.4181C20.9661 13.3833 20.8712 13.3662 20.7756 13.3678C20.68 13.3695 20.5858 13.3898 20.4985 13.4277C20.4111 13.4655 20.3325 13.5201 20.2674 13.5881L18.1604 15.6374ZM2.5 7.1539C2.5 6.97028 2.575 6.79418 2.70849 6.66434C2.84199 6.5345 3.02304 6.46156 3.21183 6.46156H12.2284C12.4172 6.46156 12.5982 6.5345 12.7317 6.66434C12.8652 6.79418 12.9402 6.97028 12.9402 7.1539C12.9402 7.33753 12.8652 7.51363 12.7317 7.64347C12.5982 7.7733 12.4172 7.84625 12.2284 7.84625H3.21183C3.02304 7.84625 2.84199 7.7733 2.70849 7.64347C2.575 7.51363 2.5 7.33753 2.5 7.1539ZM2.5 11.7695C2.5 11.5859 2.575 11.4098 2.70849 11.28C2.84199 11.1501 3.02304 11.0772 3.21183 11.0772H8.43195C8.62074 11.0772 8.8018 11.1501 8.93529 11.28C9.06879 11.4098 9.14379 11.5859 9.14379 11.7695C9.14379 11.9531 9.06879 12.1292 8.93529 12.2591C8.8018 12.3889 8.62074 12.4619 8.43195 12.4619H3.21183C3.02304 12.4619 2.84199 12.3889 2.70849 12.2591C2.575 12.1292 2.5 11.9531 2.5 11.7695ZM2.5 16.3851C2.5 16.2015 2.575 16.0254 2.70849 15.8956C2.84199 15.7657 3.02304 15.6928 3.21183 15.6928H6.53373C6.72252 15.6928 6.90357 15.7657 7.03707 15.8956C7.17056 16.0254 7.24556 16.2015 7.24556 16.3851C7.24556 16.5688 7.17056 16.7449 7.03707 16.8747C6.90357 17.0045 6.72252 17.0775 6.53373 17.0775H3.21183C3.02304 17.0775 2.84199 17.0045 2.70849 16.8747C2.575 16.7449 2.5 16.5688 2.5 16.3851Z" fill="#1F2328"/>
</svg>
