<svg width="24" height="24" viewBox="0 0 24 24" fill="none" xmlns="http://www.w3.org/2000/svg">
<path d="M5.65625 16.725C5.8303 16.725 5.99722 16.7961 6.12029 16.9227C6.24336 17.0493 6.3125 17.221 6.3125 17.4V19.425C6.3125 19.5492 6.4105 19.65 6.53125 19.65H17.4688C17.5268 19.65 17.5824 19.6263 17.6234 19.5841C17.6645 19.5419 17.6875 19.4847 17.6875 19.425V17.4C17.6875 17.221 17.7566 17.0493 17.8797 16.9227C18.0028 16.7961 18.1697 16.725 18.3438 16.725C18.5178 16.725 18.6847 16.7961 18.8078 16.9227C18.9309 17.0493 19 17.221 19 17.4V19.425C19 19.8427 18.8387 20.2433 18.5515 20.5387C18.2643 20.8341 17.8749 21 17.4688 21H6.53125C6.12514 21 5.73566 20.8341 5.44849 20.5387C5.16133 20.2433 5 19.8427 5 19.425V17.4C5 17.221 5.06914 17.0493 5.19221 16.9227C5.31528 16.7961 5.4822 16.725 5.65625 16.725Z" fill="#1F2328"/>
<path d="M6.0675 10.173C6.12837 10.1103 6.20066 10.0606 6.28023 10.0266C6.35981 9.99269 6.44511 9.97522 6.53125 9.97522C6.61739 9.97522 6.70269 9.99269 6.78227 10.0266C6.86184 10.0606 6.93413 10.1103 6.995 10.173L11.3438 14.6451V3.675C11.3438 3.49598 11.4129 3.32429 11.536 3.1977C11.659 3.07112 11.826 3 12 3C12.174 3 12.341 3.07112 12.464 3.1977C12.5871 3.32429 12.6562 3.49598 12.6562 3.675V14.6451L17.005 10.173C17.128 10.0465 17.2948 9.97542 17.4688 9.97542C17.6427 9.97542 17.8095 10.0465 17.9325 10.173C18.0555 10.2995 18.1246 10.4711 18.1246 10.65C18.1246 10.8289 18.0555 11.0005 17.9325 11.127L12.4637 16.752C12.4029 16.8147 12.3306 16.8644 12.251 16.8984C12.1714 16.9323 12.0861 16.9498 12 16.9498C11.9139 16.9498 11.8286 16.9323 11.749 16.8984C11.6694 16.8644 11.5971 16.8147 11.5363 16.752L6.0675 11.127C6.00654 11.0644 5.95819 10.99 5.92519 10.9082C5.8922 10.8263 5.87521 10.7386 5.87521 10.65C5.87521 10.5614 5.8922 10.4737 5.92519 10.3918C5.95819 10.31 6.00654 10.2356 6.0675 10.173Z" fill="#1F2328"/>
</svg>
