<svg width="24" height="24" viewBox="0 0 24 24" fill="none" xmlns="http://www.w3.org/2000/svg">
<path d="M11.0839 3.34103C11.3399 3.12084 11.6645 3 12 3C12.3355 3 12.6601 3.12084 12.9161 3.34103L19.9994 9.44445C20.1563 9.5795 20.2823 9.74762 20.3688 9.93711C20.4552 10.1266 20.5 10.3329 20.5 10.5418V19.5612C20.5 19.9428 20.3507 20.3088 20.0851 20.5786C19.8194 20.8484 19.4591 21 19.0833 21H13.6528C13.4649 21 13.2847 20.9242 13.1519 20.7893C13.0191 20.6544 12.9444 20.4714 12.9444 20.2806V14.2856H11.0556V20.2806C11.0556 20.4714 10.9809 20.6544 10.8481 20.7893C10.7153 20.9242 10.5351 21 10.3472 21H4.91667C4.54094 21 4.18061 20.8484 3.91493 20.5786C3.64926 20.3088 3.5 19.9428 3.5 19.5612V10.5418C3.5 10.1197 3.68322 9.71782 4.00056 9.44445L11.0839 3.34103ZM12 4.43836L4.91667 10.5418V19.5612H9.63889V13.5662C9.63889 13.3754 9.71352 13.1924 9.84635 13.0575C9.97919 12.9225 10.1594 12.8468 10.3472 12.8468H13.6528C13.8406 12.8468 14.0208 12.9225 14.1536 13.0575C14.2865 13.1924 14.3611 13.3754 14.3611 13.5662V19.5612H19.0833V10.5418L12 4.43836Z" fill="#1F2328"/>
</svg>
