<svg width="24" height="24" viewBox="0 0 24 24" fill="none" xmlns="http://www.w3.org/2000/svg">
<path d="M12.6818 8.13636C12.6818 7.95553 12.61 7.78211 12.4821 7.65425C12.3543 7.52638 12.1808 7.45455 12 7.45455C11.8192 7.45455 11.6457 7.52638 11.5179 7.65425C11.39 7.78211 11.3182 7.95553 11.3182 8.13636V11.3182H8.13636C7.95553 11.3182 7.78211 11.39 7.65425 11.5179C7.52638 11.6457 7.45455 11.8192 7.45455 12C7.45455 12.1808 7.52638 12.3543 7.65425 12.4821C7.78211 12.61 7.95553 12.6818 8.13636 12.6818H11.3182V15.8636C11.3182 16.0445 11.39 16.2179 11.5179 16.3458C11.6457 16.4736 11.8192 16.5455 12 16.5455C12.1808 16.5455 12.3543 16.4736 12.4821 16.3458C12.61 16.2179 12.6818 16.0445 12.6818 15.8636V12.6818H15.8636C16.0445 12.6818 16.2179 12.61 16.3458 12.4821C16.4736 12.3543 16.5455 12.1808 16.5455 12C16.5455 11.8192 16.4736 11.6457 16.3458 11.5179C16.2179 11.39 16.0445 11.3182 15.8636 11.3182H12.6818V8.13636Z" fill="#1F2328"/>
<path d="M12 2C17.5227 2 22 6.47727 22 12C22 17.5227 17.5227 22 12 22C6.47727 22 2 17.5227 2 12C2 6.47727 6.47727 2 12 2ZM3.36364 12C3.36364 14.2905 4.27354 16.4872 5.89317 18.1068C7.5128 19.7265 9.70949 20.6364 12 20.6364C14.2905 20.6364 16.4872 19.7265 18.1068 18.1068C19.7265 16.4872 20.6364 14.2905 20.6364 12C20.6364 9.70949 19.7265 7.5128 18.1068 5.89317C16.4872 4.27354 14.2905 3.36364 12 3.36364C9.70949 3.36364 7.5128 4.27354 5.89317 5.89317C4.27354 7.5128 3.36364 9.70949 3.36364 12Z" fill="#1F2328"/>
</svg>
