<svg width="24" height="24" viewBox="0 0 24 24" fill="none" xmlns="http://www.w3.org/2000/svg">
<path fill-rule="evenodd" clip-rule="evenodd" d="M17.65 2.5C18.4299 2.5 19.1776 2.81002 19.729 3.36147C20.2805 3.91291 20.5905 4.66061 20.5905 5.44048C20.5905 6.22034 20.2805 6.96804 19.729 7.51948C19.3405 7.90796 18.8545 8.17575 18.3286 8.30055V9.05952C18.3286 9.95937 17.9709 10.8221 17.3346 11.4584C16.6983 12.0947 15.8356 12.4524 14.9357 12.4524H12.6738V15.6986C13.1999 15.8233 13.6857 16.092 14.0742 16.4805C14.6257 17.032 14.9357 17.7797 14.9357 18.5595C14.9357 19.3394 14.6257 20.0871 14.0742 20.6385C13.5228 21.19 12.7751 21.5 11.9952 21.5C11.2154 21.5 10.4677 21.19 9.91623 20.6385C9.36478 20.0871 9.05476 19.3394 9.05476 18.5595C9.05476 17.7797 9.36478 17.032 9.91623 16.4805C10.3048 16.092 10.7906 15.8233 11.3167 15.6986V12.4524H9.05476C8.15492 12.4524 7.29219 12.0947 6.65591 11.4584C6.01962 10.8221 5.66191 9.95937 5.66191 9.05952V8.30055C5.13594 8.17575 4.64995 7.90796 4.26147 7.51948C3.71002 6.96804 3.4 6.22034 3.4 5.44048C3.4 4.66061 3.71002 3.91291 4.26147 3.36147C4.81292 2.81002 5.56061 2.5 6.34048 2.5C7.12034 2.5 7.86804 2.81002 8.41949 3.36147C8.97093 3.91291 9.28095 4.66061 9.28095 5.44048C9.28095 6.22034 8.97093 6.96804 8.41949 7.51948C8.03101 7.90796 7.54501 8.17575 7.01905 8.30055V9.05952C7.01905 9.59943 7.23368 10.1171 7.61545 10.4988C7.99722 10.8806 8.51486 11.0952 9.05476 11.0952H14.9357C15.4756 11.0952 15.9933 10.8806 16.375 10.4988C16.7568 10.1171 16.9714 9.59943 16.9714 9.05952V8.30055C16.4455 8.17575 15.9595 7.90796 15.571 7.51948C15.0195 6.96804 14.7095 6.22034 14.7095 5.44048C14.7095 4.66061 15.0195 3.91291 15.571 3.36147C16.1224 2.81002 16.8701 2.5 17.65 2.5ZM11.9944 16.9753C11.5745 16.9754 11.1718 17.1423 10.8749 17.4392C10.7279 17.5863 10.6107 17.7612 10.5312 17.9534C10.4517 18.1456 10.411 18.3516 10.411 18.5595C10.4111 18.7675 10.4524 18.9735 10.5321 19.1656C10.6117 19.3576 10.728 19.5321 10.8749 19.679C11.172 19.9759 11.5752 20.143 11.9952 20.1429C12.4151 20.1427 12.8178 19.9759 13.1147 19.679C13.4116 19.3819 13.5787 18.9787 13.5786 18.5586C13.5785 18.1387 13.4116 17.7361 13.1147 17.4392C12.8176 17.1422 12.4144 16.9752 11.9944 16.9753ZM6.33959 3.85626C6.13161 3.85632 5.92561 3.89766 5.73347 3.97731C5.54154 4.05689 5.36705 4.17321 5.22013 4.32013C4.9232 4.61723 4.75614 5.02043 4.75626 5.44048C4.75638 5.86038 4.92322 6.26304 5.22013 6.55994C5.51723 6.85687 5.92043 7.02393 6.34048 7.02381C6.76037 7.02369 7.16304 6.85684 7.45994 6.55994C7.75687 6.26285 7.92392 5.85963 7.92381 5.43959C7.92369 5.0197 7.75684 4.61703 7.45994 4.32013C7.16285 4.0232 6.75963 3.85615 6.33959 3.85626ZM17.6491 3.85626C17.4411 3.85632 17.2351 3.89766 17.043 3.97731C16.8511 4.05689 16.6766 4.17321 16.5297 4.32013C16.3826 4.46724 16.2655 4.64218 16.1859 4.83436C16.1064 5.02651 16.0657 5.23252 16.0658 5.44048C16.0658 5.64846 16.1072 5.85447 16.1868 6.0466C16.2664 6.23852 16.3827 6.41303 16.5297 6.55994C16.6768 6.70697 16.8517 6.82411 17.0439 6.90365C17.236 6.98316 17.442 7.02387 17.65 7.02381C18.0699 7.02369 18.4726 6.85684 18.7695 6.55994C19.0664 6.26285 19.2334 5.85963 19.2333 5.43959C19.2332 5.0197 19.0664 4.61703 18.7695 4.32013C18.4724 4.0232 18.0692 3.85614 17.6491 3.85626Z" fill="#1F2328"/>
</svg>
