<svg width="24" height="24" viewBox="0 0 24 24" fill="none" xmlns="http://www.w3.org/2000/svg">
<path d="M12 2C17.5227 2 22 6.47727 22 12C22 17.5227 17.5227 22 12 22C6.47727 22 2 17.5227 2 12C2 6.47727 6.47727 2 12 2ZM14.9464 11.5455V11.5445C14.8555 9.08273 14.0445 7.08636 13.2282 5.67909C12.8806 5.07783 12.4841 4.5062 12.0427 3.97L12 3.91818L11.9573 3.97182C11.6355 4.35818 11.2045 4.93545 10.7718 5.68091C9.95545 7.08727 9.14455 9.08364 9.05364 11.5455H14.9464ZM3.37545 11.5455H7.68909C7.78 8.78455 8.68909 6.55455 9.59182 4.99636C9.94636 4.38545 10.3009 3.87545 10.6091 3.47545C6.64545 4.11727 3.58727 7.45455 3.37545 11.5455ZM20.6245 11.5455C20.4127 7.45455 17.3545 4.11727 13.3909 3.47545C13.6991 3.87545 14.0536 4.38545 14.4082 4.99636C15.3109 6.55455 16.22 8.78455 16.3109 11.5455H20.6245ZM9.07909 12.9091C9.24455 15.1618 10.0064 17 10.7718 18.3209C11.1191 18.9218 11.5155 19.4936 11.9573 20.03L12 20.0818L12.0427 20.0282C12.3645 19.6418 12.7955 19.0645 13.2282 18.3191C13.9936 17 14.7545 15.1636 14.9209 12.9091H9.07909ZM7.71182 12.9091H3.41091C3.61077 14.7917 4.42339 16.5566 5.72387 17.9325C7.02435 19.3083 8.7407 20.219 10.6091 20.5245C10.238 20.0398 9.89818 19.5317 9.59182 19.0036C8.73909 17.5318 7.88182 15.4609 7.71182 12.9091ZM16.2882 12.9091C16.1191 15.4609 15.2609 17.5318 14.4082 19.0036C14.0536 19.6145 13.6991 20.1245 13.3918 20.5245C15.2598 20.2185 16.9757 19.3076 18.2758 17.9318C19.5759 16.556 20.3883 14.7914 20.5882 12.9091H16.2882Z" fill="#1F2328"/>
</svg>
