<svg width="24" height="24" viewBox="0 0 24 24" fill="none" xmlns="http://www.w3.org/2000/svg">
<path d="M1.18922 9.73045C1.06807 9.61292 1 9.45351 1 9.28729C0.999998 9.12107 1.06806 8.96167 1.1892 8.84413C7.15972 3.05184 16.8401 3.05197 22.8108 8.84442C22.9319 8.96196 23 9.12137 23 9.28758C23 9.4538 22.9319 9.61321 22.8108 9.73074C22.6896 9.84827 22.5253 9.9143 22.354 9.9143C22.1827 9.9143 22.0184 9.84826 21.8972 9.73073C16.4308 4.42753 7.56903 4.42741 2.1028 9.73046C1.98166 9.84799 1.81734 9.91402 1.64601 9.91402C1.47468 9.91402 1.31037 9.84799 1.18922 9.73045ZM5.45267 12.9803C9.0686 9.47234 14.9314 9.47242 18.5474 12.9805C18.6686 13.098 18.7366 13.2575 18.7366 13.4237C18.7367 13.5899 18.6686 13.7493 18.5474 13.8668C18.4263 13.9844 18.262 14.0504 18.0907 14.0504C17.9193 14.0504 17.755 13.9843 17.6339 13.8668C16.894 13.149 16.0157 12.5797 15.049 12.1912C14.0824 11.8028 13.0463 11.6028 12 11.6028C10.9537 11.6028 9.9177 11.8027 8.95105 12.1911C7.98441 12.5796 7.1061 13.1489 6.36627 13.8667C6.24513 13.9842 6.08081 14.0502 5.90948 14.0502C5.73815 14.0502 5.57384 13.9842 5.45269 13.8667C5.33153 13.7491 5.26347 13.5897 5.26347 13.4235C5.26347 13.2573 5.33153 13.0979 5.45267 12.9803ZM10.782 19.0369C10.6161 18.8831 10.4836 18.6987 10.3922 18.4945C10.3008 18.2903 10.2523 18.0704 10.2497 17.8478C10.2471 17.6252 10.2903 17.4044 10.3769 17.1982C10.4635 16.992 10.5916 16.8047 10.7538 16.6473C10.916 16.4898 11.1091 16.3654 11.3215 16.2813C11.534 16.1972 11.7616 16.1552 11.9911 16.1576C12.2205 16.16 12.4472 16.2069 12.6577 16.2955C12.8682 16.3841 13.0584 16.5126 13.217 16.6734C13.5282 16.989 13.6998 17.4103 13.6948 17.847C13.6899 18.2838 13.509 18.7013 13.1907 19.0102C12.8724 19.3191 12.4422 19.4949 11.992 19.4999C11.5418 19.5049 11.1075 19.3387 10.782 19.0369Z" fill="#1F2328"/>
</svg>
