<svg width="24" height="24" viewBox="0 0 24 24" fill="none" xmlns="http://www.w3.org/2000/svg">
<path d="M12 2C17.5227 2 22 6.47727 22 12C22 17.5227 17.5227 22 12 22C6.47727 22 2 17.5227 2 12C2 6.47727 6.47727 2 12 2ZM3.36364 12C3.36364 14.2905 4.27354 16.4872 5.89317 18.1068C7.5128 19.7265 9.70949 20.6364 12 20.6364C14.2905 20.6364 16.4872 19.7265 18.1068 18.1068C19.7265 16.4872 20.6364 14.2905 20.6364 12C20.6364 9.70949 19.7265 7.5128 18.1068 5.89317C16.4872 4.27354 14.2905 3.36364 12 3.36364C9.70949 3.36364 7.5128 4.27354 5.89317 5.89317C4.27354 7.5128 3.36364 9.70949 3.36364 12ZM12 13.8182C11.7579 13.8237 11.5171 13.7807 11.2918 13.6918C11.0665 13.603 10.8612 13.47 10.688 13.3007C10.5148 13.1314 10.3772 12.9293 10.2832 12.7061C10.1892 12.4828 10.1408 12.2431 10.1407 12.0009C10.1407 11.7587 10.189 11.519 10.2829 11.2957C10.3767 11.0725 10.5143 10.8702 10.6874 10.7008C10.8605 10.5315 11.0657 10.3984 11.291 10.3094C11.5162 10.2204 11.757 10.1774 11.9991 10.1827C12.4741 10.1932 12.9262 10.3893 13.2585 10.7289C13.5908 11.0686 13.777 11.5248 13.7771 12C13.7772 12.4752 13.5913 12.9315 13.2592 13.2713C12.927 13.6112 12.4751 13.8074 12 13.8182Z" fill="#1F2328"/>
</svg>
