<svg width="24" height="24" viewBox="0 0 24 24" fill="none" xmlns="http://www.w3.org/2000/svg">
<path d="M10.5335 17.9505C10.5291 17.753 10.5641 17.5565 10.6366 17.3727C10.7091 17.1889 10.8176 17.0214 10.9557 16.8801C11.0938 16.7388 11.2588 16.6265 11.4409 16.5498C11.623 16.4731 11.8186 16.4336 12.0162 16.4336C12.2138 16.4335 12.4094 16.4729 12.5916 16.5495C12.7737 16.6261 12.9387 16.7383 13.0769 16.8796C13.2151 17.0208 13.3237 17.1882 13.3963 17.372C13.4689 17.5558 13.504 17.7522 13.4996 17.9498C13.4911 18.3374 13.3311 18.7062 13.054 18.9773C12.7769 19.2484 12.4046 19.4003 12.0169 19.4004C11.6293 19.4005 11.2569 19.2488 10.9797 18.9778C10.7025 18.7068 10.5423 18.3381 10.5335 17.9505ZM12.017 7.56656C11.8194 7.57103 11.623 7.53598 11.4391 7.46348C11.2553 7.39099 11.0879 7.28249 10.9465 7.14438C10.8052 7.00626 10.6929 6.8413 10.6163 6.65919C10.5396 6.47708 10.5 6.28149 10.5 6.08389C10.5 5.88629 10.5394 5.69068 10.616 5.50853C10.6926 5.32638 10.8048 5.16137 10.946 5.02318C11.0873 4.88499 11.2547 4.77642 11.4385 4.70383C11.6222 4.63123 11.8187 4.59609 12.0162 4.60046C12.4038 4.60903 12.7726 4.769 13.0438 5.04611C13.3149 5.32322 13.4667 5.69546 13.4668 6.08315C13.4669 6.47083 13.3153 6.84315 13.0443 7.1204C12.7733 7.39765 12.4045 7.5578 12.017 7.56656ZM12.017 13.5002C11.8194 13.5047 11.623 13.4697 11.4391 13.3972C11.2553 13.3247 11.0879 13.2162 10.9465 13.0781C10.8052 12.9399 10.6929 12.775 10.6163 12.5929C10.5396 12.4108 10.5 12.2152 10.5 12.0176C10.5 11.82 10.5394 11.6244 10.616 11.4422C10.6926 11.2601 10.8048 11.0951 10.946 10.9569C11.0873 10.8187 11.2547 10.7101 11.4385 10.6375C11.6222 10.5649 11.8187 10.5298 12.0162 10.5341C12.4038 10.5427 12.7726 10.7027 13.0438 10.9798C13.3149 11.2569 13.4667 11.6291 13.4668 12.0168C13.4669 12.4045 13.3153 12.7768 13.0443 13.0541C12.7733 13.3313 12.4045 13.4915 12.017 13.5002Z" fill="#424952"/>
</svg>
