<svg width="24" height="24" viewBox="0 0 24 24" fill="none" xmlns="http://www.w3.org/2000/svg">
<path d="M15.9621 7C16.2384 7 16.5034 7.10983 16.6988 7.30518C16.8942 7.50053 17.004 7.7654 17.004 8.04167C17.004 8.31793 16.8942 8.58281 16.6988 8.77816C16.5034 8.97351 16.2384 9.08333 15.9621 9.08333C15.6857 9.08333 15.4208 8.97351 15.2254 8.77816C15.03 8.58281 14.9201 8.31793 14.9201 8.04167C14.9201 7.7654 15.03 7.50053 15.2254 7.30518C15.4208 7.10983 15.6857 7 15.9621 7Z" fill="#1F2328"/>
<path fill-rule="evenodd" clip-rule="evenodd" d="M15.1285 2C16.1218 2.00077 17.1034 2.217 18.0053 2.63314C18.907 3.04926 19.708 3.65544 20.3529 4.41048C20.9979 5.16566 21.4718 6.05164 21.7416 7.00732C22.0115 7.96301 22.0707 8.96589 21.9158 9.94678C21.761 10.9276 21.3956 11.8632 20.8446 12.6893C20.2935 13.5154 19.5695 14.2129 18.7232 14.7327C17.877 15.2525 16.9278 15.5829 15.9417 15.7012C14.9556 15.8194 13.9556 15.7222 13.0104 15.4172L11.647 16.7811C11.5118 16.9167 11.3509 17.0243 11.174 17.0977C10.9971 17.171 10.8072 17.2085 10.6156 17.2083H9.7104C9.65514 17.2083 9.60215 17.2303 9.56307 17.2694C9.52399 17.3084 9.50201 17.3614 9.50201 17.4167V18.6235C9.50199 18.8169 9.42537 19.0026 9.28874 19.1395L9.11047 19.3169C9.05108 19.3764 8.98002 19.4229 8.90208 19.4544C8.82411 19.4859 8.74032 19.5016 8.65625 19.5H6.37618C6.32091 19.5 6.26792 19.522 6.22884 19.561C6.18976 19.6001 6.16779 19.6531 6.16779 19.7083V20.5417C6.16779 20.9284 6.01399 21.2993 5.74043 21.5728C5.46686 21.8462 5.09594 22 4.70906 22H3.45873C3.07185 22 2.70092 21.8462 2.42736 21.5728C2.1538 21.2993 2 20.9284 2 20.5417V18.1784C2 17.7917 2.15396 17.4214 2.42736 17.1481L8.58461 10.9917C8.25048 9.96 8.16491 8.86358 8.33552 7.79264C8.50617 6.72181 8.92817 5.70639 9.56632 4.82959C10.2045 3.95288 11.041 3.23964 12.0076 2.74788C12.9743 2.25608 14.0438 1.99959 15.1285 2ZM16.9869 3.56738C15.852 3.17044 14.6193 3.14723 13.4704 3.50147C12.3214 3.85571 11.3159 4.56895 10.6018 5.53597C9.88777 6.50293 9.50237 7.67311 9.50201 8.875C9.50114 9.57697 9.63199 10.2729 9.88786 10.9266C9.93219 11.0397 9.94277 11.1633 9.91798 11.2822C9.89312 11.4012 9.83378 11.5104 9.74785 11.5964L3.31139 18.0311C3.29206 18.0505 3.27624 18.0733 3.2658 18.0986C3.25541 18.1239 3.25029 18.1511 3.25034 18.1784V20.5417C3.25034 20.6567 3.34369 20.75 3.45873 20.75H4.70906C4.76433 20.75 4.81732 20.728 4.8564 20.689C4.89548 20.6499 4.91745 20.5969 4.91745 20.5417V19.7083C4.91745 18.9033 5.57096 18.25 6.37618 18.25H8.25168V17.4167C8.25168 16.6117 8.90519 15.9583 9.7104 15.9583H10.6156C10.6429 15.9584 10.6701 15.9533 10.6954 15.9429C10.7207 15.9324 10.7436 15.9166 10.7629 15.8973L12.4064 14.2542C12.4924 14.1683 12.6017 14.109 12.7207 14.0841C12.8396 14.0594 12.9633 14.0699 13.0764 14.1143C14.1957 14.5526 15.4262 14.6211 16.5873 14.3096C17.7485 13.9978 18.7798 13.3218 19.5291 12.3817C20.2783 11.4416 20.7064 10.286 20.751 9.08496C20.7955 7.88389 20.454 6.69981 19.7766 5.70687C19.0992 4.7141 18.1216 3.96432 16.9869 3.56738Z" fill="#1F2328"/>
</svg>
