<svg width="24" height="24" viewBox="0 0 24 24" fill="none" xmlns="http://www.w3.org/2000/svg">
<path d="M9.52748 5.40617C10.2976 5.37704 11.0622 5.54996 11.7478 5.90835C12.4336 6.26684 13.0177 6.79893 13.4436 7.45338C13.8695 8.10778 14.1236 8.86259 14.1808 9.6456C14.238 10.4287 14.0967 11.2141 13.7705 11.9256C13.4444 12.6369 12.9441 13.2508 12.3181 13.7087C13.6172 14.2361 14.7371 15.1394 15.5392 16.3064C16.3411 17.4733 16.7903 18.8535 16.8326 20.2773C16.8372 20.3687 16.8245 20.4607 16.7939 20.5468C16.7634 20.6327 16.7159 20.7114 16.6551 20.7786C16.5943 20.8458 16.5206 20.9 16.439 20.9379C16.3572 20.9759 16.2687 20.997 16.1789 20.9997C16.0892 21.0024 15.9999 20.987 15.9162 20.954C15.8324 20.921 15.755 20.8717 15.6904 20.8081C15.6257 20.7447 15.5747 20.6683 15.5392 20.5844C15.5038 20.5002 15.4846 20.4091 15.4839 20.3176C15.4377 18.7771 14.8046 17.3151 13.7187 16.242C12.6327 15.169 11.1791 14.5689 9.66631 14.5689C8.15346 14.569 6.6999 15.1689 5.61396 16.242C4.52804 17.3151 3.89491 18.7771 3.84875 20.3176C3.83974 20.4971 3.76227 20.6666 3.6326 20.7884C3.50304 20.9102 3.33167 20.9753 3.15549 20.9702C2.97914 20.9649 2.81136 20.8892 2.68893 20.7598C2.56656 20.6304 2.49868 20.457 2.50002 20.2773C2.54258 18.8467 2.99664 17.4604 3.8057 16.2903C4.6149 15.1201 5.74419 14.2177 7.05232 13.6953C6.4771 13.2705 6.00867 12.7127 5.68601 12.0679C5.36337 11.4231 5.19523 10.7095 5.19573 9.98576C5.19578 9.2005 5.3941 8.42825 5.77124 7.74341C6.14834 7.0587 6.69165 6.48412 7.3493 6.07484C8.00708 5.66554 8.75725 5.43531 9.52748 5.40617ZM9.69443 6.77754C9.28088 6.77754 8.87098 6.86069 8.48891 7.02191C8.10703 7.18314 7.76023 7.41965 7.46792 7.71745C7.17561 8.01526 6.94345 8.36852 6.78521 8.75761C6.62695 9.14685 6.54534 9.56445 6.54534 9.98576C6.54535 10.4069 6.62704 10.8239 6.78521 11.213C6.94346 11.6023 7.1755 11.9562 7.46792 12.2541C7.76023 12.5519 8.10702 12.7884 8.48891 12.9496C8.87098 13.1108 9.28088 13.194 9.69443 13.194C10.5296 13.194 11.3304 12.8557 11.9209 12.2541C12.5115 11.6524 12.8435 10.8366 12.8435 9.98576C12.8435 9.13491 12.5115 8.3191 11.9209 7.71745C11.3304 7.11579 10.5296 6.77754 9.69443 6.77754ZM20.8252 3C21.0042 3 21.1758 3.07248 21.3023 3.20141C21.4289 3.33034 21.5 3.50515 21.5 3.68748C21.4999 3.86973 21.4288 4.04467 21.3023 4.17354L19.871 5.63174L21.3023 7.08995C21.4288 7.21882 21.4999 7.39376 21.5 7.57601C21.5 7.75834 21.4289 7.93315 21.3023 8.06208C21.1758 8.191 21.0042 8.26349 20.8252 8.26349C20.6463 8.26343 20.4746 8.19096 20.3481 8.06208L18.9168 6.60388L17.4854 8.06208C17.3589 8.19096 17.1872 8.26344 17.0083 8.26349C16.8294 8.26349 16.6578 8.19101 16.5312 8.06208C16.4047 7.93315 16.3335 7.75834 16.3335 7.57601C16.3336 7.39376 16.4047 7.21882 16.5312 7.08995L17.9625 5.63174L16.5312 4.17354C16.4047 4.04467 16.3336 3.86973 16.3335 3.68748C16.3335 3.50515 16.4047 3.33034 16.5312 3.20141C16.6578 3.07248 16.8294 3 17.0083 3C17.1872 3.00005 17.3589 3.07253 17.4854 3.20141L18.9168 4.65961L20.3481 3.20141C20.4746 3.07253 20.6463 3.00006 20.8252 3Z" fill="#1F2328"/>
</svg>
