<svg width="24" height="24" viewBox="0 0 24 24" fill="none" xmlns="http://www.w3.org/2000/svg">
<path d="M10.536 8.82617C11.2336 8.86796 11.9146 9.05684 12.5336 9.38104C13.1526 9.70528 13.6955 10.1577 14.1271 10.7074C14.1825 10.7778 14.2237 10.8582 14.2479 10.9444C14.2721 11.0307 14.2789 11.1209 14.2683 11.2099C14.2577 11.2988 14.2296 11.3848 14.1857 11.4629C14.1418 11.541 14.083 11.6099 14.0126 11.6653C13.9422 11.7206 13.8618 11.7618 13.7756 11.786C13.6894 11.8102 13.599 11.8171 13.5101 11.8065C13.4212 11.7958 13.3352 11.7677 13.2571 11.7239C13.179 11.68 13.1101 11.6212 13.0547 11.5508C12.7423 11.1526 12.3488 10.8251 11.9006 10.5902C11.4524 10.3553 10.9594 10.2184 10.4544 10.188C9.94925 10.1577 9.4431 10.2349 8.96999 10.4144C8.49683 10.594 8.06716 10.8724 7.70934 11.2303L4.41211 14.5275C3.7409 15.1986 3.36373 16.1085 3.36364 17.0577C3.36359 17.5277 3.45548 17.9933 3.6353 18.4276C3.81512 18.8618 4.07893 19.2564 4.41122 19.5888C5.08233 20.26 5.99313 20.6372 6.94229 20.6373C7.41207 20.6372 7.87721 20.5444 8.31126 20.3647C8.74548 20.1849 9.14012 19.9211 9.47248 19.5888L12.1998 16.8615C12.2622 16.7945 12.3381 16.7407 12.4217 16.7035C12.5052 16.6663 12.5957 16.6465 12.6871 16.6449C12.7786 16.6433 12.8696 16.6604 12.9544 16.6946C13.0392 16.7289 13.1161 16.78 13.1808 16.8446C13.2454 16.9093 13.2965 16.9862 13.3308 17.071C13.365 17.1558 13.3821 17.2468 13.3805 17.3382C13.3789 17.4297 13.3591 17.5202 13.3219 17.6037C13.2846 17.6873 13.2309 17.7632 13.1639 17.8256L10.4366 20.5529C9.97779 21.0117 9.43274 21.3752 8.83327 21.6236C8.23368 21.8719 7.5904 22 6.94141 22C6.29255 21.9999 5.64989 21.8719 5.05043 21.6236C4.45095 21.3752 3.90592 21.0117 3.44709 20.5529C2.9882 20.094 2.62389 19.5491 2.37553 18.9496C2.12717 18.35 2 17.7067 2 17.0577C2.00005 16.4089 2.12724 15.7662 2.37553 15.1667C2.62389 14.5671 2.98819 14.0223 3.44709 13.5634L6.74521 10.2653C7.23925 9.77105 7.83287 9.38765 8.48615 9.13956C9.13951 8.89147 9.83842 8.78442 10.536 8.82617Z" fill="#1F2328"/>
<path d="M17.0586 2C17.7074 2.00005 18.3501 2.12723 18.9496 2.37553C19.5492 2.62389 20.094 2.98818 20.5529 3.44709C21.0118 3.906 21.3761 4.45083 21.6245 5.05043C21.8728 5.64989 21.9999 6.29256 22 6.94141C22 7.5904 21.8728 8.23368 21.6245 8.83327C21.3761 9.43285 21.0118 9.97771 20.5529 10.4366L17.2548 13.7347C16.7607 14.229 16.1671 14.6124 15.5139 14.8604C14.8605 15.1085 14.1616 15.2156 13.464 15.1738C12.7664 15.132 12.0854 14.9423 11.4664 14.6181C10.8475 14.2938 10.3044 13.8422 9.87287 13.2926C9.76104 13.1504 9.71029 12.9698 9.73171 12.7901C9.75319 12.6104 9.84514 12.4466 9.98739 12.3347C10.1296 12.2229 10.3102 12.1721 10.4899 12.1935C10.6696 12.215 10.8334 12.307 10.9453 12.4492C11.2577 12.8474 11.6512 13.1749 12.0994 13.4098C12.5476 13.6446 13.0406 13.7816 13.5456 13.812C14.0507 13.8423 14.5569 13.7651 15.03 13.5856C15.5032 13.406 15.9328 13.1276 16.2907 12.7697L19.5879 9.47248C19.9201 9.14027 20.184 8.74617 20.3638 8.31215C20.5437 7.87798 20.6364 7.41223 20.6364 6.94229C20.6364 6.47235 20.5437 6.00662 20.3638 5.57244C20.184 5.1384 19.9201 4.74433 19.5879 4.41211C19.2557 4.07989 18.8616 3.81602 18.4276 3.63619C17.9934 3.45634 17.5277 3.36364 17.0577 3.36364C16.5878 3.36364 16.122 3.45635 15.6879 3.63619C15.2538 3.81602 14.8597 4.0799 14.5275 4.41211L11.8002 7.13938C11.6716 7.26351 11.4987 7.33189 11.32 7.33026C11.1413 7.32853 10.9704 7.25687 10.8441 7.1305C10.7177 7.00403 10.6458 6.83254 10.6444 6.65376C10.643 6.47511 10.7119 6.30282 10.8361 6.17436L13.5634 3.44709C14.0223 2.98819 14.5671 2.62389 15.1667 2.37553C15.7663 2.12717 16.4096 2 17.0586 2Z" fill="#1F2328"/>
</svg>
