<svg width="24" height="24" viewBox="0 0 24 24" fill="none" xmlns="http://www.w3.org/2000/svg">
<path d="M3 4.5C3 3.672 3.67806 3 4.51354 3H9.27037C9.4424 3 9.60739 3.06773 9.72904 3.18829C9.85068 3.30885 9.91902 3.47236 9.91902 3.64286C9.91902 3.81335 9.85068 3.97687 9.72904 4.09743C9.60739 4.21799 9.4424 4.28571 9.27037 4.28571H4.51354C4.45619 4.28571 4.4012 4.30829 4.36065 4.34848C4.3201 4.38866 4.29732 4.44317 4.29732 4.5V19.5C4.29732 19.6183 4.39418 19.7143 4.51354 19.7143H9.27037C9.4424 19.7143 9.60739 19.782 9.72904 19.9026C9.85068 20.0231 9.91902 20.1866 9.91902 20.3571C9.91902 20.5276 9.85068 20.6912 9.72904 20.8117C9.60739 20.9323 9.4424 21 9.27037 21H4.51354C4.11212 21 3.72715 20.842 3.4433 20.5607C3.15946 20.2794 3 19.8978 3 19.5V4.5ZM16.8432 12.6429H9.70281C9.53077 12.6429 9.36578 12.5751 9.24413 12.4546C9.12249 12.334 9.05415 12.1705 9.05415 12C9.05415 11.8295 9.12249 11.666 9.24413 11.5454C9.36578 11.4249 9.53077 11.3571 9.70281 11.3571H16.8432L13.9891 8.37086C13.8755 8.24638 13.8154 8.08276 13.8219 7.91499C13.8283 7.74722 13.9008 7.58861 14.0237 7.47307C14.1466 7.35753 14.3102 7.29423 14.4796 7.2967C14.649 7.29917 14.8107 7.36721 14.9301 7.48629L18.8221 11.5577C18.9363 11.6771 19 11.8354 19 12C19 12.1646 18.9363 12.3229 18.8221 12.4423L14.9301 16.5137C14.8107 16.6328 14.649 16.7008 14.4796 16.7033C14.3102 16.7058 14.1466 16.6425 14.0237 16.5269C13.9008 16.4114 13.8283 16.2528 13.8219 16.085C13.8154 15.9172 13.8755 15.7536 13.9891 15.6291L16.8432 12.6429Z" fill="#1F2328"/>
</svg>
