<svg width="24" height="24" viewBox="0 0 24 24" fill="none" xmlns="http://www.w3.org/2000/svg">
<path d="M16.5375 2.96704C16.8298 2.66799 17.226 2.5 17.6392 2.5C18.0524 2.5 18.4486 2.66799 18.7409 2.96704L21.0439 5.32536C21.3359 5.62462 21.5 6.03038 21.5 6.45345C21.5 6.87652 21.3359 7.28228 21.0439 7.58154L18.5565 10.1286L18.5458 10.1405L8.90256 19.5656C8.72633 19.738 8.51314 19.8657 8.28005 19.9386L3.36135 21.4707C3.2457 21.5066 3.12269 21.5096 3.0055 21.4794C2.88831 21.4492 2.78135 21.3869 2.69608 21.2992C2.61045 21.2119 2.54964 21.1024 2.52014 20.9824C2.49065 20.8624 2.49359 20.7364 2.52865 20.618L4.0186 15.6022C4.09674 15.3397 4.23968 15.1022 4.43361 14.9128L14.0555 5.50775L16.5375 2.96704ZM5.35626 15.9022C5.32872 15.9295 5.30821 15.9634 5.29659 16.0007L4.17089 19.789L7.89086 18.6299C7.92422 18.6193 7.95471 18.6009 7.97992 18.5761L17.1289 9.63345L14.5106 6.95321L5.35626 15.9022ZM18.0845 8.67863L20.0999 6.61578C20.1206 6.5946 20.1371 6.56944 20.1483 6.54175C20.1595 6.51405 20.1653 6.48435 20.1653 6.45436C20.1653 6.42438 20.1595 6.39468 20.1483 6.36698C20.1371 6.33929 20.1206 6.31413 20.0999 6.29295L17.7968 3.93463C17.7762 3.91339 17.7516 3.89655 17.7245 3.88505C17.6975 3.87356 17.6685 3.86764 17.6392 3.86764C17.6099 3.86764 17.5809 3.87356 17.5539 3.88505C17.5268 3.89655 17.5022 3.91339 17.4816 3.93463L15.4671 5.99747L18.0845 8.67863Z" fill="#1F2328"/>
</svg>
