<svg width="24" height="24" viewBox="0 0 24 24" fill="none" xmlns="http://www.w3.org/2000/svg">
<path d="M11.9997 3.5C13.0455 3.49968 14.0639 3.83639 14.9054 4.46072C15.7468 5.08505 16.3671 5.96412 16.675 6.96889C16.983 7.97367 16.9625 9.05123 16.6165 10.0434C16.2706 11.0356 15.6173 11.8902 14.7527 12.4817C16.2534 13.0351 17.5551 14.0273 18.49 15.3307C19.425 16.6341 19.9506 18.189 19.9991 19.7953C20.0037 19.8844 19.9904 19.9736 19.9602 20.0576C19.93 20.1415 19.8835 20.2186 19.8232 20.2842C19.763 20.3498 19.6904 20.4027 19.6096 20.4397C19.5288 20.4767 19.4414 20.4971 19.3527 20.4997C19.2639 20.5023 19.1755 20.4871 19.0927 20.4549C19.0098 20.4227 18.9342 20.3743 18.8703 20.3123C18.8064 20.2504 18.7554 20.1762 18.7203 20.0942C18.6853 20.0121 18.6669 19.9239 18.6662 19.8346C18.6132 18.0927 17.8877 16.4399 16.6434 15.2266C15.399 14.0132 13.7337 13.3347 12.0002 13.3347C10.2667 13.3347 8.60129 14.0132 7.35695 15.2266C6.1126 16.4399 5.38708 18.0927 5.33413 19.8346C5.32882 20.0124 5.25347 20.1809 5.12465 20.3028C4.99582 20.4248 4.82408 20.4903 4.64721 20.485C4.47033 20.4797 4.30281 20.4039 4.18149 20.2744C4.06017 20.1449 3.99499 19.9722 4.0003 19.7944C4.04898 18.1883 4.57464 16.6336 5.50963 15.3304C6.44461 14.0271 7.74613 13.035 9.24669 12.4817C8.38209 11.8902 7.72887 11.0356 7.38289 10.0434C7.03692 9.05123 7.01641 7.97367 7.32439 6.96889C7.63237 5.96412 8.2526 5.08505 9.09407 4.46072C9.93553 3.83639 10.9539 3.49968 11.9997 3.5ZM8.44284 8.41684C8.44284 9.36522 8.81758 10.2748 9.48462 10.9454C10.1517 11.616 11.0564 11.9927 11.9997 11.9927C12.9431 11.9927 13.8478 11.616 14.5148 10.9454C15.1819 10.2748 15.5566 9.36522 15.5566 8.41684C15.5566 7.46845 15.1819 6.55891 14.5148 5.88831C13.8478 5.2177 12.9431 4.84096 11.9997 4.84096C11.0564 4.84096 10.1517 5.2177 9.48462 5.88831C8.81758 6.55891 8.44284 7.46845 8.44284 8.41684Z" fill="#1F2328"/>
</svg>
