<svg width="24" height="24" viewBox="0 0 24 24" fill="none" xmlns="http://www.w3.org/2000/svg">
<path fill-rule="evenodd" clip-rule="evenodd" d="M5.44048 2.5C6.22034 2.5 6.96804 2.81002 7.51948 3.36147C8.07093 3.91291 8.38095 4.66061 8.38095 5.44048C8.38095 6.22034 8.07093 6.96804 7.51948 7.51948C7.12906 7.90991 6.64011 8.17834 6.1111 8.30232C6.11416 8.32842 6.11905 8.35441 6.11905 8.38095V15.619C6.11905 15.6453 6.11408 15.671 6.1111 15.6968C6.64018 15.8208 7.12901 16.09 7.51948 16.4805C8.07093 17.032 8.38095 17.7797 8.38095 18.5595C8.38095 19.3394 8.07093 20.0871 7.51948 20.6385C6.96804 21.19 6.22034 21.5 5.44048 21.5C4.66061 21.5 3.91291 21.19 3.36147 20.6385C2.81002 20.0871 2.5 19.3394 2.5 18.5595C2.5 17.7797 2.81002 17.032 3.36147 16.4805C3.75174 16.0902 4.24021 15.8208 4.76897 15.6968C4.76599 15.671 4.7619 15.6452 4.7619 15.619V8.38095C4.76191 8.35444 4.76592 8.32838 4.76897 8.30232C4.24028 8.17825 3.75169 7.90971 3.36147 7.51948C2.81002 6.96804 2.5 6.22034 2.5 5.44048C2.5 4.66061 2.81002 3.91291 3.36147 3.36147C3.91291 2.81002 4.66061 2.5 5.44048 2.5ZM5.44048 16.9762C5.02058 16.9763 4.61791 17.1432 4.32101 17.4401C4.02408 17.7372 3.85703 18.1404 3.85714 18.5604C3.85726 18.9803 4.02411 19.383 4.32101 19.6799C4.61811 19.9768 5.02132 20.1439 5.44136 20.1437C5.64935 20.1437 5.85535 20.1023 6.04748 20.0227C6.23941 19.9431 6.41391 19.8268 6.56083 19.6799C6.70785 19.5328 6.82499 19.3578 6.90453 19.1656C6.98405 18.9735 7.02475 18.7675 7.02469 18.5595C7.02463 18.3515 6.98329 18.1455 6.90365 17.9534C6.82406 17.7615 6.70775 17.587 6.56083 17.4401C6.41372 17.293 6.23877 17.1759 6.0466 17.0964C5.85444 17.0168 5.64843 16.9761 5.44048 16.9762ZM5.44048 3.85714C5.23249 3.8572 5.02649 3.89854 4.83436 3.97819C4.64243 4.05778 4.46793 4.17409 4.32101 4.32101C4.17398 4.46812 4.05684 4.64306 3.97731 4.83524C3.89779 5.02739 3.85709 5.2334 3.85714 5.44136C3.8572 5.64935 3.89854 5.85535 3.97819 6.04748C4.05778 6.23941 4.17409 6.41391 4.32101 6.56083C4.46812 6.70785 4.64306 6.82499 4.83524 6.90453C5.02739 6.98405 5.2334 7.02475 5.44136 7.02469C5.86126 7.02457 6.26392 6.85773 6.56083 6.56083C6.85776 6.26372 7.02481 5.86052 7.02469 5.44048C7.02457 5.02058 6.85773 4.61791 6.56083 4.32101C6.26372 4.02408 5.86052 3.85702 5.44048 3.85714Z" fill="#1F2328"/>
<path fill-rule="evenodd" clip-rule="evenodd" d="M12.7917 2.50088C12.9715 2.50088 13.1442 2.57175 13.2714 2.6988C13.3985 2.82602 13.4693 2.99877 13.4694 3.17857C13.4694 3.35838 13.3985 3.53111 13.2714 3.65834L12.167 4.7619H15.8452C16.7451 4.7619 17.6078 5.11964 18.2441 5.75591C18.8804 6.39217 19.2381 7.25494 19.2381 8.15476V15.6986C19.7641 15.8233 20.25 16.092 20.6385 16.4805C21.19 17.032 21.5 17.7797 21.5 18.5595C21.5 19.3394 21.19 20.0871 20.6385 20.6385C20.0871 21.19 19.3394 21.5 18.5595 21.5C17.7797 21.5 17.032 21.19 16.4805 20.6385C15.9291 20.0871 15.619 19.3394 15.619 18.5595C15.619 17.7797 15.9291 17.032 16.4805 16.4805C16.869 16.092 17.3549 15.8233 17.881 15.6986V8.15476C17.8809 7.61488 17.6663 7.0972 17.2846 6.71545C16.9028 6.3337 16.3851 6.11905 15.8452 6.11905H12.1679L13.2723 7.22261C13.3959 7.35065 13.4639 7.52269 13.4623 7.70061C13.4606 7.87841 13.3893 8.04852 13.2635 8.1742C13.1376 8.29995 12.9669 8.37154 12.789 8.373C12.6112 8.37437 12.4397 8.30574 12.3119 8.18215L10.05 5.92025C9.92294 5.79302 9.85207 5.62028 9.85207 5.44048C9.85209 5.26068 9.92293 5.08792 10.05 4.96071L12.3119 2.6988C12.4391 2.57175 12.6119 2.50088 12.7917 2.50088ZM18.5595 16.9762C18.3515 16.9762 18.1455 17.0176 17.9534 17.0972C17.7615 17.1768 17.587 17.2931 17.4401 17.4401C17.293 17.5872 17.1759 17.7621 17.0964 17.9543C17.0168 18.1464 16.9761 18.3525 16.9762 18.5604C16.9762 18.7684 17.0176 18.9744 17.0972 19.1665C17.1768 19.3585 17.2931 19.533 17.4401 19.6799C17.5872 19.8269 17.7621 19.944 17.9543 20.0236C18.1464 20.1031 18.3524 20.1438 18.5604 20.1437C18.9803 20.1436 19.383 19.9768 19.6799 19.6799C19.9768 19.3828 20.1439 18.9796 20.1437 18.5595C20.1436 18.1396 19.9768 17.737 19.6799 17.4401C19.3828 17.1431 18.9796 16.9761 18.5595 16.9762Z" fill="#1F2328"/>
</svg>
