<svg width="24" height="24" viewBox="0 0 24 24" fill="none" xmlns="http://www.w3.org/2000/svg">
<path d="M16.9791 11.375C17.0643 11.375 17.1488 11.393 17.227 11.4271C17.3051 11.4612 17.3754 11.511 17.4335 11.5736L20.3367 14.6986C20.4474 14.8199 20.5058 14.9801 20.4995 15.1445C20.4932 15.3091 20.4225 15.465 20.3027 15.5775C20.183 15.6897 20.0241 15.7498 19.8604 15.7451C19.6965 15.7403 19.5409 15.6707 19.4279 15.5514L17.6012 13.5861V21.375C17.6012 21.5407 17.5356 21.6997 17.419 21.8169C17.3023 21.9341 17.1441 22 16.9791 22C16.8141 22 16.6559 21.9341 16.5392 21.8169C16.4226 21.6997 16.357 21.5407 16.357 21.375V13.5853L14.5303 15.5514C14.4748 15.6123 14.408 15.6616 14.3335 15.6963C14.259 15.731 14.1782 15.7508 14.0962 15.7541C14.014 15.7573 13.9318 15.7438 13.8548 15.715C13.7779 15.6863 13.7074 15.6426 13.6474 15.5864C13.5873 15.53 13.5387 15.4615 13.5048 15.3862C13.4711 15.3111 13.4522 15.2301 13.4497 15.1478C13.4474 15.0653 13.4617 14.9831 13.4911 14.9061C13.5205 14.829 13.5648 14.7583 13.6215 14.6986L16.5247 11.5736C16.5828 11.511 16.6531 11.4612 16.7312 11.4271C16.8094 11.393 16.8939 11.375 16.9791 11.375Z" fill="#1F2328"/>
<path d="M17.8086 2C17.9736 2 18.1318 2.0659 18.2484 2.18311C18.3651 2.30032 18.4307 2.45924 18.4307 2.625V9.08333C18.4307 9.24909 18.3651 9.40802 18.2484 9.52523C18.1318 9.64244 17.9736 9.70833 17.8086 9.70833C17.6436 9.70833 17.4854 9.64244 17.3687 9.52523C17.2521 9.40802 17.1865 9.24909 17.1865 9.08333V3.25H5.78108C5.20873 3.25 4.74422 3.71667 4.74422 4.29167V14.8345C5.11003 14.622 5.53555 14.5 5.98845 14.5H11.1727C11.3377 14.5 11.4959 14.5659 11.6126 14.6831C11.7292 14.8003 11.7948 14.9592 11.7948 15.125C11.7948 15.2908 11.7292 15.4497 11.6126 15.5669C11.4959 15.6841 11.3377 15.75 11.1727 15.75H5.98845C5.65846 15.75 5.34208 15.8818 5.10874 16.1162C4.87541 16.3506 4.74422 16.6685 4.74422 17V18.0417C4.74422 18.6167 5.20873 19.0833 5.78108 19.0833H14.0759C14.2409 19.0833 14.3991 19.1492 14.5158 19.2664C14.6324 19.3836 14.698 19.5426 14.698 19.7083C14.698 19.8741 14.6324 20.033 14.5158 20.1502C14.3991 20.2674 14.2409 20.3333 14.0759 20.3333H5.78108C5.1761 20.3333 4.59607 20.0917 4.16828 19.6619C3.7405 19.2322 3.5 18.6495 3.5 18.0417V4.29167C3.5 3.68388 3.7405 3.10116 4.16828 2.67139C4.59607 2.24162 5.1761 2 5.78108 2H17.8086Z" fill="#1F2328"/>
</svg>
