<svg width="24" height="24" viewBox="0 0 24 24" fill="none" xmlns="http://www.w3.org/2000/svg">
<path d="M4.5 4.23438C4.5 3.64178 4.73541 3.07346 5.15443 2.65443C5.57346 2.23541 6.14178 2 6.73438 2H18.5156C18.6772 2 18.8322 2.0642 18.9465 2.17848C19.0608 2.29276 19.125 2.44776 19.125 2.60938V9.10938C19.125 9.27099 19.0608 9.42599 18.9465 9.54027C18.8322 9.65455 18.6772 9.71875 18.5156 9.71875C18.354 9.71875 18.199 9.65455 18.0847 9.54027C17.9705 9.42599 17.9062 9.27099 17.9062 9.10938V3.21875H6.73438C6.17375 3.21875 5.71875 3.67375 5.71875 4.23438V14.5133C6.08918 14.2992 6.50963 14.1868 6.9375 14.1875H11.2031C11.3647 14.1875 11.5197 14.2517 11.634 14.366C11.7483 14.4803 11.8125 14.6353 11.8125 14.7969C11.8125 14.9585 11.7483 15.1135 11.634 15.2278C11.5197 15.342 11.3647 15.4062 11.2031 15.4062H6.9375C6.61427 15.4062 6.30427 15.5347 6.07571 15.7632C5.84715 15.9918 5.71875 16.3018 5.71875 16.625V17.6406C5.71875 18.2012 6.17375 18.6562 6.73438 18.6562H10.7969C10.9585 18.6562 11.1135 18.7205 11.2278 18.8347C11.342 18.949 11.4062 19.104 11.4062 19.2656C11.4062 19.4272 11.342 19.5822 11.2278 19.6965C11.1135 19.8108 10.9585 19.875 10.7969 19.875H6.73438C6.14178 19.875 5.57346 19.6396 5.15443 19.2206C4.73541 18.8015 4.5 18.2332 4.5 17.6406V4.23438Z" fill="#1F2328"/>
<path d="M14.25 13.7812C14.25 13.027 14.5496 12.3037 15.0829 11.7704C15.6162 11.2371 16.3395 10.9375 17.0938 10.9375C17.848 10.9375 18.5713 11.2371 19.1046 11.7704C19.6379 12.3037 19.9375 13.027 19.9375 13.7812V15H20.1406C20.9255 15 21.5625 15.637 21.5625 16.4219V20.0781C21.5625 20.4552 21.4127 20.8169 21.146 21.0835C20.8794 21.3502 20.5177 21.5 20.1406 21.5H14.0469C13.6698 21.5 13.3081 21.3502 13.0415 21.0835C12.7748 20.8169 12.625 20.4552 12.625 20.0781V16.4219C12.625 15.637 13.262 15 14.0469 15H14.25V13.7812ZM17.0938 12.1562C16.6628 12.1562 16.2494 12.3275 15.9447 12.6322C15.64 12.9369 15.4688 13.3503 15.4688 13.7812V15H18.7188V13.7812C18.7188 13.3503 18.5475 12.9369 18.2428 12.6322C17.9381 12.3275 17.5247 12.1562 17.0938 12.1562Z" fill="#1F2328"/>
</svg>
