<svg width="24" height="24" viewBox="0 0 24 24" fill="none" xmlns="http://www.w3.org/2000/svg">
<path d="M12.2083 17.3136C12.2636 17.3136 12.3166 17.336 12.3556 17.3759C12.3947 17.4158 12.4167 17.4698 12.4167 17.5263V21.7883C12.4165 21.8275 12.4059 21.8664 12.3857 21.8997C12.3657 21.9328 12.3367 21.9593 12.3027 21.9769C12.2686 21.9946 12.2302 22.0024 12.1921 21.9994C12.1538 21.9962 12.1165 21.9825 12.0854 21.9595L10.2479 20.5953C10.2123 20.5689 10.169 20.5546 10.125 20.5546C10.081 20.5546 10.0377 20.5689 10.0021 20.5953L8.16455 21.9586C8.13366 21.9816 8.09681 21.9953 8.05876 21.9985C8.0207 22.0017 7.98219 21.9944 7.94808 21.9769C7.91391 21.9594 7.88529 21.932 7.86507 21.8988C7.84486 21.8657 7.83367 21.8274 7.83333 21.7883V17.5263C7.83333 17.4698 7.8553 17.4158 7.89437 17.3759C7.93344 17.336 7.98641 17.3136 8.04167 17.3136H12.2083Z" fill="#1F2328"/>
<path fill-rule="evenodd" clip-rule="evenodd" d="M18.875 2C19.0408 2 19.1997 2.06727 19.3169 2.18693C19.4341 2.30659 19.5 2.46884 19.5 2.63807V20.0785C19.5 20.2477 19.4341 20.41 19.3169 20.5296C19.1997 20.6493 19.0408 20.7166 18.875 20.7166H13.875C13.7092 20.7166 13.5503 20.6493 13.4331 20.5296C13.3159 20.41 13.25 20.2477 13.25 20.0785C13.25 19.9093 13.3159 19.747 13.4331 19.6274C13.5503 19.5077 13.7092 19.4405 13.875 19.4405H18.25V16.0374H7C6.66848 16.0374 6.35063 16.172 6.11621 16.4113C5.88179 16.6506 5.75 16.9751 5.75 17.3136V17.9516C5.75 18.5608 6.10817 19.0869 6.62484 19.3175C6.7716 19.3885 6.88606 19.5145 6.94303 19.6698C7 19.8251 6.99502 19.9972 6.93001 20.1491C6.86504 20.301 6.74486 20.421 6.59473 20.484C6.44443 20.5469 6.27595 20.5473 6.12516 20.4856C5.64227 20.2703 5.23133 19.9163 4.94271 19.4662C4.65408 19.0161 4.50005 18.4897 4.5 17.9516V4.33957C4.5 3.71908 4.74162 3.12418 5.17139 2.68542C5.60116 2.24667 6.18388 2 6.79167 2H18.875ZM6.79167 3.27613C6.21667 3.27613 5.75 3.75255 5.75 4.33957V15.1028C6.12996 14.8786 6.56117 14.7606 7 14.7613H18.25V3.27613H6.79167Z" fill="#1F2328"/>
</svg>
