<svg width="24" height="24" viewBox="0 0 24 24" fill="none" xmlns="http://www.w3.org/2000/svg">
<path d="M6.79167 2C6.18388 2 5.60098 2.24649 5.17121 2.68524C4.74144 3.12399 4.5 3.71906 4.5 4.33955V5.1903C4.5 5.35952 4.56585 5.52181 4.68306 5.64147C4.80027 5.76113 4.95924 5.82836 5.125 5.82836C5.29076 5.82836 5.44973 5.76113 5.56694 5.64147C5.68415 5.52181 5.75 5.35952 5.75 5.1903V4.33955C5.75 3.75254 6.21667 3.27612 6.79167 3.27612H7.625C7.79076 3.27612 7.94973 3.20889 8.06694 3.08924C8.18415 2.96958 8.25 2.80728 8.25 2.63806C8.25 2.46884 8.18415 2.30654 8.06694 2.18688C7.94973 2.06722 7.79076 2 7.625 2H6.79167ZM10.125 2C9.95924 2 9.80027 2.06722 9.68306 2.18688C9.56585 2.30654 9.5 2.46884 9.5 2.63806C9.5 2.80728 9.56585 2.96958 9.68306 3.08924C9.80027 3.20889 9.95924 3.27612 10.125 3.27612H13.875C14.0408 3.27612 14.1997 3.20889 14.3169 3.08924C14.4342 2.96958 14.5 2.80728 14.5 2.63806C14.5 2.46884 14.4342 2.30654 14.3169 2.18688C14.1997 2.06722 14.0408 2 13.875 2H10.125ZM16.375 2C16.2092 2 16.0503 2.06722 15.9331 2.18688C15.8158 2.30654 15.75 2.46884 15.75 2.63806C15.75 2.80728 15.8158 2.96958 15.9331 3.08924C16.0503 3.20889 16.2092 3.27612 16.375 3.27612H18.25V5.1903C18.25 5.35952 18.3158 5.52181 18.4331 5.64147C18.5503 5.76113 18.7092 5.82836 18.875 5.82836C19.0408 5.82836 19.1997 5.76113 19.3169 5.64147C19.4342 5.52181 19.5 5.35952 19.5 5.1903V2.63806C19.5 2.46884 19.4342 2.30654 19.3169 2.18688C19.1997 2.06722 19.0408 2 18.875 2H16.375ZM5.75 7.52985C5.75 7.36062 5.68415 7.19833 5.56694 7.07867C5.44973 6.95901 5.29076 6.89179 5.125 6.89179C4.95924 6.89179 4.80027 6.95901 4.68306 7.07867C4.56585 7.19833 4.5 7.36062 4.5 7.52985V10.7201C4.5 10.8894 4.56585 11.0517 4.68306 11.1713C4.80027 11.291 4.95924 11.3582 5.125 11.3582C5.29076 11.3582 5.44973 11.291 5.56694 11.1713C5.68415 11.0517 5.75 10.8894 5.75 10.7201V7.52985ZM19.5 7.52985C19.5 7.36062 19.4342 7.19833 19.3169 7.07867C19.1997 6.95901 19.0408 6.89179 18.875 6.89179C18.7092 6.89179 18.5503 6.95901 18.4331 7.07867C18.3158 7.19833 18.25 7.36062 18.25 7.52985V10.7201C18.25 10.8894 18.3158 11.0517 18.4331 11.1713C18.5503 11.291 18.7092 11.3582 18.875 11.3582C19.0408 11.3582 19.1997 11.291 19.3169 11.1713C19.4342 11.0517 19.5 10.8894 19.5 10.7201V7.52985ZM5.75 13.2724C5.75 13.1032 5.68415 12.9409 5.56694 12.8212C5.44973 12.7015 5.29076 12.6343 5.125 12.6343C4.95924 12.6343 4.80027 12.7015 4.68306 12.8212C4.56585 12.9409 4.5 13.1032 4.5 13.2724V17.9515C4.49979 18.4897 4.65343 19.0162 4.94208 19.4666C5.23073 19.9169 5.64184 20.2714 6.125 20.4867C6.20024 20.5202 6.2812 20.5383 6.36328 20.5399C6.44535 20.5414 6.52692 20.5265 6.60334 20.4959C6.67975 20.4653 6.74951 20.4196 6.80864 20.3614C6.86776 20.3033 6.91509 20.2339 6.94792 20.157C6.98075 20.0802 6.99844 19.9976 6.99998 19.9138C7.00152 19.83 6.98688 19.7467 6.95689 19.6687C6.9269 19.5907 6.88216 19.5195 6.82522 19.4591C6.76827 19.3988 6.70024 19.3504 6.625 19.3169C6.36479 19.201 6.14339 19.01 5.98795 18.7675C5.83252 18.5249 5.74982 18.2413 5.75 17.9515V17.3134C5.75 16.975 5.8817 16.6504 6.11612 16.4111C6.35054 16.1718 6.66848 16.0373 7 16.0373H7.625C7.79076 16.0373 7.94973 15.9701 8.06694 15.8504C8.18415 15.7308 8.25 15.5685 8.25 15.3992C8.25 15.23 8.18415 15.0677 8.06694 14.9481C7.94973 14.8284 7.79076 14.7612 7.625 14.7612H7C6.545 14.7612 6.1175 14.8854 5.75 15.1023V13.2724ZM19.5 13.2724C19.5 13.1032 19.4342 12.9409 19.3169 12.8212C19.1997 12.7015 19.0408 12.6343 18.875 12.6343C18.7092 12.6343 18.5503 12.7015 18.4331 12.8212C18.3158 12.9409 18.25 13.1032 18.25 13.2724V14.7612H16.375C16.2092 14.7612 16.0503 14.8284 15.9331 14.9481C15.8158 15.0677 15.75 15.23 15.75 15.3992C15.75 15.5685 15.8158 15.7308 15.9331 15.8504C16.0503 15.9701 16.2092 16.0373 16.375 16.0373H18.25V19.4403H13.875C13.7092 19.4403 13.5503 19.5075 13.4331 19.6272C13.3158 19.7468 13.25 19.9091 13.25 20.0783C13.25 20.2476 13.3158 20.4099 13.4331 20.5295C13.5503 20.6492 13.7092 20.7164 13.875 20.7164H18.875C19.0408 20.7164 19.1997 20.6492 19.3169 20.5295C19.4342 20.4099 19.5 20.2476 19.5 20.0783V13.2724ZM10.125 14.7612C9.95924 14.7612 9.80027 14.8284 9.68306 14.9481C9.56585 15.0677 9.5 15.23 9.5 15.3992C9.5 15.5685 9.56585 15.7308 9.68306 15.8504C9.80027 15.9701 9.95924 16.0373 10.125 16.0373H13.875C14.0408 16.0373 14.1997 15.9701 14.3169 15.8504C14.4342 15.7308 14.5 15.5685 14.5 15.3992C14.5 15.23 14.4342 15.0677 14.3169 14.9481C14.1997 14.8284 14.0408 14.7612 13.875 14.7612H10.125ZM8.16417 21.9593C8.13316 21.9824 8.09652 21.9962 8.05831 21.9993C8.02009 22.0024 7.98177 21.9947 7.94756 21.9771C7.91335 21.9594 7.88459 21.9324 7.86444 21.8991C7.84428 21.8658 7.83352 21.8275 7.83333 21.7883V17.5261C7.83333 17.4697 7.85528 17.4156 7.89435 17.3757C7.93342 17.3358 7.98641 17.3134 8.04167 17.3134H12.2083C12.2636 17.3134 12.3166 17.3358 12.3556 17.3757C12.3947 17.4156 12.4167 17.4697 12.4167 17.5261V21.7883C12.4165 21.8275 12.4057 21.8658 12.3856 21.8991C12.3654 21.9324 12.3366 21.9594 12.3024 21.9771C12.2682 21.9947 12.2299 22.0024 12.1917 21.9993C12.1535 21.9962 12.1168 21.9824 12.0858 21.9593L10.2475 20.5947C10.2119 20.5683 10.169 20.5541 10.125 20.5541C10.081 20.5541 10.0381 20.5683 10.0025 20.5947L8.16417 21.9585V21.9593Z" fill="#1F2328"/>
</svg>
