<svg width="24" height="24" viewBox="0 0 24 24" fill="none" xmlns="http://www.w3.org/2000/svg">
<path d="M21.5 5.64706V9.41176C21.5 9.84859 21.3248 10.2675 21.0131 10.5764C20.7013 10.8853 20.2784 11.0588 19.8375 11.0588H4.1625C3.72158 11.0588 3.29871 10.8853 2.98694 10.5764C2.67516 10.2675 2.5 9.84859 2.5 9.41176V5.64706C2.5 4.73788 3.2448 4 4.1625 4H19.8375C20.7552 4 21.5 4.73788 21.5 5.64706ZM21.5 14.5882V18.3529C21.5 18.7898 21.3248 19.2087 21.0131 19.5176C20.7013 19.8265 20.2784 20 19.8375 20H4.1625C3.72158 20 3.29871 19.8265 2.98694 19.5176C2.67516 19.2087 2.5 18.7898 2.5 18.3529V14.5882C2.5 13.6791 3.2448 12.9412 4.1625 12.9412H19.8375C20.7552 12.9412 21.5 13.6791 21.5 14.5882ZM19.8375 5.41176H4.1625C4.09951 5.41176 4.0391 5.43655 3.99456 5.48068C3.95002 5.52481 3.925 5.58465 3.925 5.64706V9.41176C3.925 9.54165 4.0314 9.64706 4.1625 9.64706H19.8375C19.9005 9.64706 19.9609 9.62227 20.0054 9.57814C20.05 9.53402 20.075 9.47417 20.075 9.41176V5.64706C20.075 5.58465 20.05 5.52481 20.0054 5.48068C19.9609 5.43655 19.9005 5.41176 19.8375 5.41176ZM19.8375 14.3529H4.1625C4.09951 14.3529 4.0391 14.3777 3.99456 14.4219C3.95002 14.466 3.925 14.5258 3.925 14.5882V18.3529C3.925 18.4828 4.0314 18.5882 4.1625 18.5882H19.8375C19.9005 18.5882 19.9609 18.5634 20.0054 18.5193C20.05 18.4752 20.075 18.4153 20.075 18.3529V14.5882C20.075 14.5258 20.05 14.466 20.0054 14.4219C19.9609 14.3777 19.9005 14.3529 19.8375 14.3529Z" fill="#1F2328"/>
</svg>
