<svg width="24" height="24" viewBox="0 0 24 24" fill="none" xmlns="http://www.w3.org/2000/svg">
<path d="M10.1385 2.5C11.5905 2.49984 13.0124 2.91344 14.2377 3.69234C15.463 4.47125 16.441 5.5832 17.0571 6.89793C17.6732 8.21267 17.9018 9.67575 17.7163 11.1158C17.5307 12.5558 16.9386 13.9131 16.0094 15.0287L21.2784 20.2976C21.3698 20.3825 21.4366 20.4905 21.4718 20.6102C21.507 20.7299 21.5093 20.8568 21.4784 20.9777C21.4475 21.0986 21.3845 21.2089 21.2962 21.2969C21.2079 21.385 21.0974 21.4477 20.9765 21.4783C20.8558 21.5092 20.7289 21.5071 20.6093 21.472C20.4897 21.437 20.3818 21.3704 20.2968 21.2792L15.0278 16.0103C14.085 16.7953 12.967 17.3417 11.7683 17.6033C10.5697 17.8649 9.32563 17.8339 8.14147 17.513C6.95731 17.1921 5.86785 16.5908 4.96524 15.7598C4.06263 14.9289 3.37343 13.8928 2.95594 12.7391C2.53844 11.5855 2.40493 10.3483 2.56671 9.13213C2.72848 7.91599 3.18078 6.7567 3.88533 5.75232C4.58989 4.74794 5.52599 3.92801 6.61443 3.36191C7.70288 2.7958 8.91166 2.50016 10.1385 2.5ZM3.888 10.1395C3.888 10.9603 4.04967 11.7731 4.36379 12.5314C4.67791 13.2898 5.13832 13.9788 5.71874 14.5592C6.29915 15.1396 6.98821 15.6 7.74656 15.9141C8.50491 16.2283 9.3177 16.3899 10.1385 16.3899C10.9594 16.3899 11.7722 16.2283 12.5305 15.9141C13.2889 15.6 13.9779 15.1396 14.5583 14.5592C15.1387 13.9788 15.5992 13.2898 15.9133 12.5314C16.2274 11.7731 16.3891 10.9603 16.3891 10.1395C16.3891 8.48174 15.7305 6.8919 14.5583 5.71971C13.3861 4.54752 11.7963 3.88899 10.1385 3.88899C8.48079 3.88899 6.89094 4.54752 5.71874 5.71971C4.54654 6.8919 3.888 8.48174 3.888 10.1395Z" fill="#1F2328"/>
</svg>
