<svg width="24" height="24" viewBox="0 0 24 24" fill="none" xmlns="http://www.w3.org/2000/svg">
<path d="M15.6368 12.0002C15.6368 12.9647 15.2537 13.8896 14.5718 14.5716C13.8898 15.2535 12.9649 15.6367 12.0005 15.6367C11.036 15.6367 10.1111 15.2535 9.42916 14.5716C8.74721 13.8896 8.36409 12.9647 8.36409 12.0002C8.36409 11.0358 8.74721 10.1108 9.42916 9.42887C10.1111 8.74691 11.036 8.36378 12.0005 8.36378C12.9649 8.36378 13.8898 8.74691 14.5718 9.42887C15.2537 10.1108 15.6368 11.0358 15.6368 12.0002ZM14.2732 12.0002C14.2732 11.3974 14.0337 10.8194 13.6075 10.3931C13.1813 9.9669 12.6032 9.72745 12.0005 9.72745C11.3977 9.72745 10.8196 9.9669 10.3934 10.3931C9.96717 10.8194 9.72773 11.3974 9.72773 12.0002C9.72773 12.603 9.96717 13.1811 10.3934 13.6073C10.8196 14.0336 11.3977 14.273 12.0005 14.273C12.6032 14.273 13.1813 14.0336 13.6075 13.6073C14.0337 13.1811 14.2732 12.603 14.2732 12.0002Z" fill="#1F2328"/>
<path d="M12.0005 2C12.2423 2 12.4841 2.00818 12.725 2.02546C13.4186 2.07546 13.9477 2.58638 14.0995 3.21094L14.4195 4.52915C14.4368 4.60006 14.5014 4.68461 14.6241 4.73006C14.8486 4.81097 15.0695 4.90279 15.2859 5.00461C15.4041 5.06007 15.5095 5.04461 15.5723 5.00643L16.7314 4.30096C17.2795 3.96641 18.0141 3.98004 18.5405 4.4346C18.9059 4.75188 19.2495 5.09462 19.5659 5.46099C20.0214 5.98645 20.0341 6.72102 19.6995 7.27012L18.9941 8.42833C18.9559 8.49106 18.9414 8.59651 18.9959 8.7147C19.0977 8.93107 19.1895 9.15198 19.2714 9.37653C19.315 9.49926 19.4005 9.5629 19.4714 9.58108L20.7895 9.90109C21.4141 10.0529 21.925 10.582 21.9741 11.2757C22.0086 11.7584 22.0086 12.2421 21.9741 12.7248C21.925 13.4184 21.4141 13.9475 20.7895 14.0994L19.4714 14.4194C19.4005 14.4366 19.3159 14.5012 19.2705 14.6239C19.1895 14.8494 19.0977 15.0703 18.9959 15.2858C18.9405 15.4039 18.9559 15.5094 18.9941 15.5721L19.6995 16.7312C20.0341 17.2794 20.0205 18.014 19.5659 18.5404C19.2486 18.9058 18.9059 19.2495 18.5395 19.5659C18.0141 20.0213 17.2795 20.034 16.7305 19.6995L15.5723 18.994C15.5095 18.9558 15.4041 18.9413 15.2868 18.9958C15.0702 19.0977 14.8491 19.1897 14.6241 19.2713C14.5014 19.3149 14.4377 19.4004 14.4195 19.4713L14.0995 20.7895C13.9477 21.4141 13.4186 21.925 12.725 21.9741C12.2423 22.0086 11.7586 22.0086 11.2759 21.9741C10.5823 21.925 10.0532 21.4141 9.90136 20.7895L9.58136 19.4713C9.56409 19.4004 9.49955 19.3158 9.37682 19.2704C9.15191 19.1896 8.93104 19.098 8.715 18.9958C8.59682 18.9404 8.49136 18.9558 8.42864 18.994L7.26955 19.6995C6.72136 20.034 5.98682 20.0204 5.46045 19.5659C5.095 19.2486 4.75136 18.9058 4.435 18.5395C3.97955 18.014 3.96682 17.2794 4.30136 16.7303L5.00682 15.5721C5.045 15.5094 5.05955 15.4039 5.005 15.2867C4.90309 15.0701 4.81118 14.8489 4.72955 14.6239C4.68591 14.5012 4.60046 14.4376 4.52955 14.4194L3.21136 14.0994C2.58682 13.9475 2.07591 13.4184 2.02591 12.7248C1.99136 12.2424 1.99136 11.7581 2.02591 11.2757C2.07591 10.582 2.58682 10.0529 3.21136 9.90109L4.52955 9.58108C4.60046 9.56381 4.685 9.49926 4.73045 9.37653C4.81136 9.15107 4.90318 8.93016 5.005 8.7147C5.06045 8.59651 5.045 8.49106 5.00682 8.42833L4.30136 7.26921C3.96682 6.72102 3.98045 5.98645 4.435 5.46008C4.75227 5.09462 5.095 4.75097 5.46136 4.4346C5.98682 3.97914 6.72136 3.96641 7.27045 4.30096L8.42864 5.00643C8.49136 5.04461 8.59682 5.05916 8.715 5.00461C8.93136 4.90279 9.15227 4.81097 9.37682 4.72915C9.49955 4.68552 9.56318 4.60006 9.58136 4.52915L9.90136 3.21094C10.0532 2.58638 10.5823 2.07546 11.2759 2.02546C11.515 2.00909 11.7568 2 12.0005 2ZM11.3732 3.3864C11.3232 3.39003 11.2505 3.43185 11.2268 3.53276L10.9059 4.85097C10.8379 5.1174 10.7051 5.36285 10.5192 5.56542C10.3332 5.76799 10.1001 5.92139 9.84045 6.01191C9.6553 6.07906 9.47329 6.15459 9.295 6.23828C9.04714 6.35817 8.77343 6.41478 8.49835 6.40304C8.22327 6.3913 7.95538 6.31158 7.71864 6.171L6.56045 5.46553C6.47136 5.41099 6.39136 5.43281 6.35318 5.46553C6.03688 5.74002 5.74039 6.03652 5.46591 6.35283C5.43318 6.39101 5.41136 6.47192 5.46591 6.5601L6.17136 7.71831C6.45682 8.19923 6.48227 8.79106 6.23864 9.29471C6.15495 9.47301 6.07942 9.65502 6.01227 9.84018C5.92186 10.1001 5.76842 10.3336 5.56566 10.5197C5.36291 10.7058 5.11717 10.8387 4.85046 10.9066L3.53227 11.2257C3.43227 11.2502 3.39046 11.3229 3.38682 11.3729C3.35682 11.7906 3.35682 12.2099 3.38682 12.6275C3.39046 12.6775 3.43227 12.7502 3.53318 12.7739L4.85136 13.0948C5.11778 13.1628 5.36323 13.2956 5.56579 13.4816C5.76836 13.6675 5.92175 13.9006 6.01227 14.1603C6.07955 14.3457 6.155 14.5276 6.23864 14.7057C6.48227 15.2085 6.45682 15.8003 6.17136 16.2812L5.46591 17.4403C5.41136 17.5294 5.43318 17.6094 5.46591 17.6476C5.73955 17.964 6.03682 18.2613 6.35318 18.5349C6.39136 18.5676 6.47227 18.5895 6.56045 18.5349L7.71864 17.8295C7.95522 17.6885 8.22309 17.6085 8.49822 17.5966C8.77335 17.5847 9.04713 17.6413 9.295 17.7613C9.47318 17.8458 9.655 17.9213 9.84045 17.9885C10.1004 18.079 10.3339 18.2324 10.52 18.4352C10.7061 18.6379 10.839 18.8837 10.9068 19.1504L11.2259 20.4686C11.2505 20.5686 11.3232 20.6104 11.3732 20.6141C11.7908 20.6441 12.2101 20.6441 12.6277 20.6141C12.6777 20.6104 12.7505 20.5686 12.7741 20.4677L13.095 19.1495C13.163 18.883 13.2958 18.6374 13.4817 18.4347C13.6676 18.232 13.9008 18.0784 14.1605 17.9876C14.3457 17.9212 14.5278 17.8459 14.7059 17.7622C14.9536 17.6423 15.2272 17.5857 15.5021 17.5974C15.777 17.6092 16.0448 17.6889 16.2814 17.8295L17.4405 18.5349C17.5295 18.5895 17.6095 18.5676 17.6477 18.5349C17.9641 18.2613 18.2614 17.964 18.535 17.6476C18.5677 17.6094 18.5895 17.5285 18.535 17.4403L17.8295 16.2812C17.6891 16.0446 17.6093 15.777 17.5974 15.5021C17.5855 15.2272 17.6418 14.9536 17.7614 14.7057C17.8459 14.5276 17.9214 14.3457 17.9886 14.1603C18.079 13.9003 18.2325 13.6669 18.4352 13.4808C18.638 13.2947 18.8837 13.1617 19.1505 13.0939L20.4686 12.7748C20.5686 12.7502 20.6105 12.6775 20.6141 12.6275C20.6441 12.2099 20.6441 11.7906 20.6141 11.3729C20.6105 11.3229 20.5686 11.2502 20.4677 11.2266L19.1495 10.9057C18.5805 10.7675 18.1677 10.3375 17.9877 9.84018C17.9216 9.65475 17.8464 9.47271 17.7623 9.29471C17.6424 9.04685 17.5858 8.77313 17.5975 8.49804C17.6093 8.22296 17.689 7.95506 17.8295 7.71831L18.535 6.5601C18.5895 6.47101 18.5677 6.39101 18.535 6.35283C18.2605 6.03652 17.964 5.74002 17.6477 5.46553C17.6095 5.43281 17.5286 5.41099 17.4405 5.46553L16.2814 6.171C16.0448 6.31158 15.777 6.3913 15.5021 6.40304C15.2272 6.41478 14.9536 6.35817 14.7059 6.23828C14.5278 6.15428 14.3457 6.07873 14.1605 6.01191C13.9007 5.92121 13.6674 5.76767 13.4813 5.56496C13.2953 5.36224 13.1622 5.11665 13.0941 4.85006L12.775 3.53185C12.7505 3.43185 12.6777 3.39003 12.6277 3.3864C12.2101 3.35639 11.7908 3.35639 11.3732 3.3864Z" fill="#1F2328"/>
</svg>
