<svg width="24" height="24" viewBox="0 0 24 24" fill="none" xmlns="http://www.w3.org/2000/svg">
<path d="M11.9312 3C12.049 2.99992 12.1644 3.03282 12.2645 3.09496C12.3645 3.1571 12.4452 3.246 12.4973 3.35161L15.0696 8.56429L20.8223 9.4004C20.9387 9.41745 21.048 9.4667 21.1379 9.5426C21.2278 9.61849 21.2946 9.71801 21.3309 9.82991C21.3673 9.94181 21.3716 10.0616 21.3434 10.1758C21.3152 10.2901 21.2556 10.3941 21.1714 10.4762L17.0093 14.5332L17.9918 20.2623C18.0114 20.3783 17.9982 20.4974 17.9538 20.6063C17.9094 20.7152 17.8355 20.8095 17.7404 20.8786C17.6453 20.9478 17.5327 20.989 17.4155 20.9977C17.2982 21.0063 17.1808 20.9821 17.0766 20.9277L11.9312 18.2225L6.78581 20.9277C6.68166 20.9824 6.5643 21.0068 6.44698 20.9984C6.32965 20.9899 6.21704 20.9487 6.12186 20.8796C6.02668 20.8105 5.95271 20.7162 5.90832 20.6072C5.86392 20.4983 5.85086 20.3791 5.87062 20.2632L6.8531 14.5332L2.69103 10.4762C2.60655 10.3941 2.54677 10.2899 2.51846 10.1755C2.49016 10.0611 2.49447 9.94107 2.53089 9.829C2.56732 9.71692 2.6344 9.61729 2.72455 9.54139C2.8147 9.46549 2.92431 9.41636 3.04095 9.39956L8.79282 8.56429L11.3659 3.35161C11.418 3.24613 11.4985 3.15731 11.5984 3.09518C11.6983 3.03305 11.8136 3.00008 11.9312 3ZM11.9312 5.05664L9.77782 9.41975C9.7325 9.51146 9.66556 9.59077 9.58276 9.65085C9.49997 9.71093 9.40381 9.74998 9.30256 9.76463L4.48691 10.4645L7.97184 13.8611C8.04512 13.9325 8.09989 14.0206 8.13141 14.118C8.16292 14.2153 8.17023 14.3188 8.15269 14.4196L7.33004 19.2159L11.6376 16.9515C11.7282 16.9039 11.8289 16.879 11.9312 16.879C12.0335 16.879 12.1342 16.9039 12.2248 16.9515L16.5315 19.2159L15.7097 14.4196C15.6922 14.3188 15.6995 14.2153 15.731 14.118C15.7625 14.0206 15.8173 13.9325 15.8905 13.8611L19.3755 10.4645L14.5598 9.76547C14.4586 9.75082 14.3624 9.71177 14.2796 9.65169C14.1968 9.59161 14.1299 9.5123 14.0846 9.42059L11.9312 5.05664Z" fill="#1F2328"/>
</svg>
