<svg width="24" height="24" viewBox="0 0 24 24" fill="none" xmlns="http://www.w3.org/2000/svg">
<path d="M8.43333 20.3286C8.55181 20.4414 8.70852 20.5028 8.87043 20.4999C9.03235 20.497 9.18684 20.43 9.30135 20.3129C9.41586 20.1959 9.48146 20.038 9.48431 19.8726C9.48717 19.7071 9.42707 19.547 9.31667 19.4259L6.63333 16.6838H18.875C19.0408 16.6838 19.1997 16.6165 19.3169 16.4967C19.4342 16.3769 19.5 16.2145 19.5 16.0451C19.5 15.8757 19.4342 15.7132 19.3169 15.5934C19.1997 15.4737 19.0408 15.4064 18.875 15.4064H6.63333L9.31667 12.6642C9.37807 12.6058 9.42732 12.5353 9.46148 12.4569C9.49564 12.3786 9.51401 12.294 9.51549 12.2082C9.51697 12.1225 9.50154 12.0373 9.4701 11.9578C9.43867 11.8782 9.39188 11.806 9.33253 11.7453C9.27318 11.6847 9.20249 11.6369 9.12466 11.6048C9.04684 11.5726 8.96348 11.5569 8.87956 11.5584C8.79565 11.5599 8.71288 11.5787 8.63622 11.6136C8.55955 11.6485 8.49055 11.6988 8.43333 11.7616L4.68333 15.5937C4.56629 15.7135 4.50055 15.8758 4.50055 16.0451C4.50055 16.2143 4.56629 16.3767 4.68333 16.4964L8.43333 20.3286ZM15.5667 12.2384C15.5094 12.3012 15.4404 12.3515 15.3638 12.3864C15.2871 12.4213 15.2044 12.4401 15.1204 12.4416C15.0365 12.4431 14.9532 12.4274 14.8753 12.3952C14.7975 12.3631 14.7268 12.3153 14.6675 12.2547C14.6081 12.194 14.5613 12.1218 14.5299 12.0422C14.4985 11.9627 14.483 11.8775 14.4845 11.7918C14.486 11.706 14.5044 11.6214 14.5385 11.5431C14.5727 11.4647 14.6219 11.3942 14.6833 11.3358L17.3667 8.59363H5.125C4.95924 8.59363 4.80027 8.52634 4.68306 8.40656C4.56585 8.28678 4.5 8.12432 4.5 7.95493C4.5 7.78554 4.56585 7.62309 4.68306 7.50331C4.80027 7.38353 4.95924 7.31624 5.125 7.31624H17.3667L14.6833 4.57411C14.5729 4.45303 14.5128 4.29289 14.5157 4.12743C14.5185 3.96196 14.5841 3.80409 14.6986 3.68707C14.8132 3.57005 14.9676 3.50302 15.1296 3.5001C15.2915 3.49718 15.4482 3.5586 15.5667 3.67142L19.3167 7.50359C19.4337 7.62334 19.4994 7.78568 19.4994 7.95493C19.4994 8.12419 19.4337 8.28652 19.3167 8.40628L15.5667 12.2384Z" fill="#1F2328"/>
</svg>
