<svg width="24" height="24" viewBox="0 0 24 24" fill="none" xmlns="http://www.w3.org/2000/svg">
<path d="M11.6625 14.8707L6.14006 9.75437C6.07327 9.69265 6.02775 9.61397 6.00925 9.52827C5.99076 9.44257 6.00012 9.35372 6.03615 9.27295C6.07219 9.19219 6.13328 9.12314 6.21168 9.07455C6.29009 9.02596 6.3823 9.00002 6.47663 9H17.5234C17.6177 9.00002 17.7099 9.02596 17.7883 9.07455C17.8667 9.12314 17.9278 9.19219 17.9638 9.27295C17.9999 9.35372 18.0092 9.44257 17.9907 9.52827C17.9723 9.61397 17.9267 9.69265 17.8599 9.75437L12.3366 14.8707C12.2472 14.9535 12.1259 15 11.9995 15C11.8731 15 11.7519 14.9535 11.6625 14.8707Z" fill="#1F2328"/>
</svg>
