<svg width="24" height="24" viewBox="0 0 24 24" fill="none" xmlns="http://www.w3.org/2000/svg">
<path d="M10.5557 14.7991H4.32335L2.83465 19.0178C2.80596 19.107 2.76014 19.1893 2.69989 19.26C2.63963 19.3307 2.56618 19.3883 2.48386 19.4293C2.40154 19.4704 2.31204 19.4941 2.22063 19.499C2.12923 19.504 2.03779 19.4901 1.95172 19.4581C1.86565 19.4262 1.7867 19.3769 1.71953 19.3131C1.65236 19.2493 1.59834 19.1723 1.56067 19.0867C1.523 19.0012 1.50244 18.9087 1.5002 18.8148C1.49797 18.7209 1.51411 18.6276 1.54766 18.5402L6.18447 5.40203C6.27811 5.13769 6.44879 4.90932 6.67332 4.74794C6.89786 4.58657 7.16536 4.5 7.43951 4.5C7.71365 4.5 7.98116 4.58657 8.20569 4.74794C8.43022 4.90932 8.6009 5.13769 8.69455 5.40203L13.3314 18.5402C13.3619 18.627 13.3755 18.719 13.3714 18.8112C13.3673 18.9034 13.3455 18.9938 13.3073 19.0773C13.2691 19.1608 13.2153 19.2358 13.1489 19.298C13.0824 19.3601 13.0047 19.4083 12.9202 19.4396C12.8356 19.471 12.7458 19.485 12.656 19.4807C12.5662 19.4765 12.4781 19.4542 12.3966 19.415C12.3152 19.3758 12.2421 19.3206 12.1815 19.2524C12.1209 19.1843 12.074 19.1045 12.0435 19.0178L10.5557 14.7991ZM14.6923 10.0252C15.5256 8.44918 17.1595 7.96037 18.6025 7.96037C19.5582 7.96037 20.5047 8.25253 21.2294 8.78911C21.9606 9.32943 22.5 10.1516 22.5 11.1751V18.779C22.5 18.9653 22.4279 19.1439 22.2995 19.2756C22.1711 19.4073 21.997 19.4813 21.8154 19.4813C21.6339 19.4813 21.4598 19.4073 21.3314 19.2756C21.203 19.1439 21.1309 18.9653 21.1309 18.779V18.7228L21.0907 18.7462C20.2756 19.2332 19.1776 19.4813 17.9408 19.4813C16.9815 19.4813 16.0715 19.1863 15.3896 18.5936C14.6959 17.9915 14.2788 17.1159 14.2788 16.0633C14.2788 15.2028 14.5973 14.3206 15.3449 13.6632C16.0842 13.0134 17.1704 12.6453 18.6025 12.6453H21.1309V11.1751C21.1309 10.7041 20.8908 10.2696 20.429 9.92781C19.9607 9.58133 19.3017 9.36595 18.6025 9.36595C17.3986 9.36595 16.3854 9.76862 15.8953 10.6957C15.8076 10.8574 15.6613 10.9771 15.488 11.0288C15.3148 11.0804 15.1287 11.0598 14.9702 10.9715C14.8117 10.8831 14.6936 10.7342 14.6416 10.557C14.5895 10.3798 14.6077 10.1887 14.6923 10.0252ZM10.0591 13.3945L7.43951 5.97044L4.81989 13.3945H10.0591ZM21.1309 14.05H18.6025C17.3876 14.05 16.6547 14.3618 16.2357 14.7298C16.0475 14.8935 15.8971 15.098 15.7954 15.3286C15.6937 15.5593 15.6434 15.8102 15.6479 16.0633C15.6479 16.7085 15.8916 17.1899 16.2741 17.5214C16.6666 17.8632 17.2462 18.0767 17.9408 18.0767C19.0206 18.0767 19.8594 17.8566 20.4025 17.5326C20.9337 17.2142 21.1309 16.8396 21.1309 16.4707V14.05Z" fill="#1F2328"/>
</svg>
