<svg width="104" height="24" viewBox="0 0 104 24" fill="none" xmlns="http://www.w3.org/2000/svg">
<path d="M22 12C22 17.5228 17.5228 22 12 22C6.47715 22 2 17.5228 2 12C2 6.47715 6.47715 2 12 2C17.5228 2 22 6.47715 22 12Z" fill="#4FE2CA"/>
<path d="M40.6589 3.53882C42.0481 3.53882 43.2537 3.77834 44.2756 4.25739C45.3136 4.73643 46.104 5.43105 46.6469 6.34123C47.2058 7.23545 47.4852 8.29734 47.4852 9.52689C47.4852 10.7564 47.2058 11.8263 46.6469 12.7365C46.104 13.6307 45.3136 14.3173 44.2756 14.7964C43.2537 15.2754 42.0481 15.515 40.6589 15.515H37.2097V20.3054H34.0002V3.53882H40.6589ZM40.4912 12.7365C41.7207 12.7365 42.6549 12.457 43.2936 11.8982C43.9323 11.3393 44.2517 10.5489 44.2517 9.52689C44.2517 8.50492 43.9323 7.7145 43.2936 7.15561C42.6549 6.59673 41.7207 6.31728 40.4912 6.31728H37.2097V12.7365H40.4912Z" fill="#00A497"/>
<path d="M52.6108 9.91104C53.026 9.2244 53.6009 8.70544 54.3354 8.35414C55.0699 8.00284 55.9242 7.83517 56.8983 7.85114V10.8691L56.1797 10.8212C55.1098 10.8212 54.2715 11.1486 53.6647 11.8033C53.0579 12.442 52.7545 13.3921 52.7545 14.6536V20.8333H49.6408V8.01881H52.6108V9.91104Z" fill="#00A497"/>
<path d="M65.1257 20.9999C63.8643 20.9999 62.7305 20.7205 61.7245 20.1616C60.7185 19.6027 59.9281 18.8202 59.3533 17.8142C58.7944 16.8082 58.5149 15.6745 58.5149 14.413C58.5149 13.1515 58.7944 12.0258 59.3533 11.0357C59.9281 10.0298 60.7185 9.24731 61.7245 8.68843C62.7305 8.12954 63.8643 7.8501 65.1257 7.8501C66.3713 7.8501 67.489 8.12954 68.479 8.68843C69.485 9.24731 70.2675 10.0298 70.8264 11.0357C71.4012 12.0258 71.6886 13.1515 71.6886 14.413C71.6886 15.6745 71.4012 16.8082 70.8264 17.8142C70.2675 18.8202 69.485 19.6027 68.479 20.1616C67.489 20.7205 66.3713 20.9999 65.1257 20.9999ZM65.1257 18.3172C66.1158 18.3172 66.9301 17.9659 67.5689 17.2633C68.2236 16.5448 68.5509 15.5947 68.5509 14.413C68.5509 13.2314 68.2236 12.2893 67.5689 11.5867C66.9301 10.8841 66.1158 10.5328 65.1257 10.5328C64.1198 10.5328 63.2894 10.8841 62.6347 11.5867C61.996 12.2893 61.6766 13.2314 61.6766 14.413C61.6766 15.5947 61.996 16.5448 62.6347 17.2633C63.2894 17.9659 64.1198 18.3172 65.1257 18.3172Z" fill="#00A497"/>
<path d="M80.8627 7.79045C81.9964 7.79045 83.0184 8.06191 83.9286 8.60483C84.8547 9.14775 85.5813 9.92221 86.1082 10.9282C86.6351 11.9182 86.8986 13.06 86.8986 14.3534C86.8986 15.6628 86.6351 16.8205 86.1082 17.8265C85.5813 18.8165 84.8547 19.583 83.9286 20.1259C83.0184 20.6688 81.9964 20.9403 80.8627 20.9403C79.9844 20.9403 79.202 20.7726 78.5154 20.4373C77.8287 20.1019 77.2619 19.6149 76.8148 18.9762V20.7726H73.8447V3H76.9585V9.63478C77.4056 9.02799 77.9645 8.5729 78.6351 8.2695C79.3058 7.95014 80.0483 7.79045 80.8627 7.79045ZM80.3597 18.2576C81.3497 18.2576 82.1641 17.9063 82.8028 17.2037C83.4575 16.4851 83.7848 15.535 83.7848 14.3534C83.7848 13.1717 83.4575 12.2296 82.8028 11.527C82.1641 10.8244 81.3497 10.4731 80.3597 10.4731C79.3537 10.4731 78.5234 10.8244 77.8687 11.527C77.2299 12.2296 76.9106 13.1717 76.9106 14.3534C76.9106 15.535 77.2299 16.4851 77.8687 17.2037C78.5234 17.9063 79.3537 18.2576 80.3597 18.2576Z" fill="#00A497"/>
<path d="M101.677 14.437C101.677 14.5008 101.653 14.7963 101.605 15.3232H92.1919C92.3356 16.2653 92.7428 17.0078 93.4135 17.5508C94.1001 18.0937 94.9544 18.3651 95.9764 18.3651C97.2698 18.3651 98.3396 17.918 99.1859 17.0238L100.839 18.916C99.673 20.3053 98.0203 20.9999 95.8806 20.9999C94.5392 20.9999 93.3496 20.7205 92.3117 20.1616C91.2738 19.5867 90.4674 18.8043 89.8925 17.8142C89.3336 16.8082 89.0542 15.6745 89.0542 14.413C89.0542 13.1515 89.3256 12.0258 89.8686 11.0358C90.4274 10.0298 91.1939 9.24731 92.168 8.68843C93.142 8.12954 94.2279 7.8501 95.4255 7.8501C96.6071 7.8501 97.669 8.12156 98.6111 8.66447C99.5692 9.20739 100.32 9.97387 100.863 10.9639C101.406 11.9539 101.677 13.1116 101.677 14.437ZM95.4494 10.3172C94.5712 10.3172 93.8286 10.5966 93.2219 11.1555C92.631 11.7144 92.2718 12.4569 92.144 13.3831H98.7548C98.6271 12.4729 98.2598 11.7384 97.653 11.1795C97.0622 10.6046 96.3277 10.3172 95.4494 10.3172Z" fill="#00A497"/>
</svg>
