<svg width="72" height="24" viewBox="0 0 72 24" fill="none" xmlns="http://www.w3.org/2000/svg">
<path d="M8.65886 3.53882C10.0481 3.53882 11.2537 3.77834 12.2756 4.25739C13.3136 4.73643 14.104 5.43105 14.6469 6.34123C15.2058 7.23545 15.4852 8.29734 15.4852 9.52689C15.4852 10.7564 15.2058 11.8263 14.6469 12.7365C14.104 13.6307 13.3136 14.3173 12.2756 14.7964C11.2537 15.2754 10.0481 15.515 8.65886 15.515H5.20975V20.3054H2.00016V3.53882H8.65886ZM8.4912 12.7365C9.72074 12.7365 10.6549 12.457 11.2936 11.8982C11.9323 11.3393 12.2517 10.5489 12.2517 9.52689C12.2517 8.50492 11.9323 7.7145 11.2936 7.15561C10.6549 6.59673 9.72074 6.31728 8.4912 6.31728H5.20975V12.7365H8.4912Z" fill="#00A497"/>
<path d="M20.6108 9.91104C21.026 9.2244 21.6009 8.70544 22.3354 8.35414C23.0699 8.00284 23.9242 7.83517 24.8983 7.85114V10.8691L24.1797 10.8212C23.1098 10.8212 22.2715 11.1486 21.6647 11.8033C21.0579 12.442 20.7545 13.3921 20.7545 14.6536V20.8333H17.6408V8.01881H20.6108V9.91104Z" fill="#00A497"/>
<path d="M33.1257 20.9999C31.8643 20.9999 30.7305 20.7205 29.7245 20.1616C28.7186 19.6027 27.9281 18.8202 27.3533 17.8142C26.7944 16.8082 26.515 15.6745 26.515 14.413C26.515 13.1515 26.7944 12.0258 27.3533 11.0357C27.9281 10.0298 28.7186 9.24731 29.7245 8.68843C30.7305 8.12954 31.8643 7.8501 33.1257 7.8501C34.3713 7.8501 35.489 8.12954 36.4791 8.68843C37.485 9.24731 38.2675 10.0298 38.8264 11.0357C39.4012 12.0258 39.6886 13.1515 39.6886 14.413C39.6886 15.6745 39.4012 16.8082 38.8264 17.8142C38.2675 18.8202 37.485 19.6027 36.4791 20.1616C35.489 20.7205 34.3713 20.9999 33.1257 20.9999ZM33.1257 18.3172C34.1158 18.3172 34.9301 17.9659 35.5689 17.2633C36.2236 16.5448 36.5509 15.5947 36.5509 14.413C36.5509 13.2314 36.2236 12.2893 35.5689 11.5867C34.9301 10.8841 34.1158 10.5328 33.1257 10.5328C32.1198 10.5328 31.2894 10.8841 30.6347 11.5867C29.996 12.2893 29.6766 13.2314 29.6766 14.413C29.6766 15.5947 29.996 16.5448 30.6347 17.2633C31.2894 17.9659 32.1198 18.3172 33.1257 18.3172Z" fill="#00A497"/>
<path d="M48.8627 7.79045C49.9964 7.79045 51.0184 8.06191 51.9286 8.60483C52.8547 9.14775 53.5813 9.92221 54.1082 10.9282C54.6352 11.9182 54.8986 13.06 54.8986 14.3534C54.8986 15.6628 54.6352 16.8205 54.1082 17.8265C53.5813 18.8165 52.8547 19.583 51.9286 20.1259C51.0184 20.6688 49.9964 20.9403 48.8627 20.9403C47.9844 20.9403 47.202 20.7726 46.5154 20.4373C45.8287 20.1019 45.2619 19.6149 44.8148 18.9762V20.7726H41.8447V3H44.9585V9.63478C45.4056 9.02799 45.9645 8.5729 46.6351 8.2695C47.3058 7.95014 48.0483 7.79045 48.8627 7.79045ZM48.3597 18.2576C49.3497 18.2576 50.1641 17.9063 50.8028 17.2037C51.4575 16.4851 51.7848 15.535 51.7848 14.3534C51.7848 13.1717 51.4575 12.2296 50.8028 11.527C50.1641 10.8244 49.3497 10.4731 48.3597 10.4731C47.3537 10.4731 46.5234 10.8244 45.8687 11.527C45.2299 12.2296 44.9106 13.1717 44.9106 14.3534C44.9106 15.535 45.2299 16.4851 45.8687 17.2037C46.5234 17.9063 47.3537 18.2576 48.3597 18.2576Z" fill="#00A497"/>
<path d="M69.677 14.437C69.677 14.5008 69.653 14.7963 69.6051 15.3232H60.1919C60.3356 16.2653 60.7428 17.0078 61.4135 17.5508C62.1001 18.0937 62.9544 18.3651 63.9764 18.3651C65.2698 18.3651 66.3396 17.918 67.1859 17.0238L68.8386 18.916C67.673 20.3053 66.0203 20.9999 63.8806 20.9999C62.5392 20.9999 61.3496 20.7205 60.3117 20.1616C59.2738 19.5867 58.4674 18.8043 57.8925 17.8142C57.3336 16.8082 57.0542 15.6745 57.0542 14.413C57.0542 13.1515 57.3256 12.0258 57.8686 11.0358C58.4274 10.0298 59.1939 9.24731 60.168 8.68843C61.142 8.12954 62.2279 7.8501 63.4255 7.8501C64.6071 7.8501 65.669 8.12156 66.6111 8.66447C67.5692 9.20739 68.3197 9.97387 68.8626 10.9639C69.4055 11.9539 69.677 13.1116 69.677 14.437ZM63.4494 10.3172C62.5712 10.3172 61.8286 10.5966 61.2219 11.1555C60.631 11.7144 60.2718 12.4569 60.144 13.3831H66.7548C66.6271 12.4729 66.2598 11.7384 65.653 11.1795C65.0622 10.6046 64.3277 10.3172 63.4494 10.3172Z" fill="#00A497"/>
</svg>
